<?xml version="1.0" encoding="UTF-8"?>
<svg width="100px" height="100px" viewBox="0 0 100 100" version="1.1" xmlns="http://www.w3.org/2000/svg" xmlns:xlink="http://www.w3.org/1999/xlink">
    <!-- Generator: Sketch 46.2 (44496) - http://www.bohemiancoding.com/sketch -->
    <title>Shape</title>
    <desc>Created with Sketch.</desc>
    <defs></defs>
    <g id="design" stroke="none" stroke-width="1" fill="none" fill-rule="evenodd">
        <g id="landing-page" transform="translate(-730.000000, -610.000000)" fill-rule="nonzero" fill="#C9FFFB">
            <g id="2" transform="translate(700.000000, 580.000000)">
                <path d="M123.653039,112.768636 L119.634562,94.1776615 C126.059359,87.3563679 130.003029,78.1734816 130.003029,68.0858814 C130.003029,47.0852662 112.917763,30 91.9171479,30 C76.4219674,30 62.5854292,39.4291825 56.7485395,53.4438509 C56.6879908,53.4401398 56.6270515,53.4374054 56.5657216,53.4374054 L32.9328027,53.4374054 C30.7604734,53.4374054 29.3387521,55.72966 30.3122181,57.677178 L35.5164721,68.0856861 L30.3122181,78.4941942 C29.3409006,80.4374152 30.7553951,82.7343575 32.9328027,82.7343575 L56.5655263,82.7343575 C56.6268562,82.7343575 56.6876002,82.731623 56.7483442,82.727912 C58.5392169,87.0276473 61.0826508,90.8959247 64.1966092,94.1925056 L60.1812572,112.768636 C56.5182593,113.828823 53.8312665,117.210758 53.8312665,121.210875 L53.8312665,127.070227 C53.8312665,128.688243 55.1430237,130 56.7610398,130 L127.073256,130 C128.691272,130 130.003029,128.688243 130.003029,127.070227 L130.003029,121.210875 C130.003029,117.210758 127.316037,113.828823 123.653039,112.768636 Z M54.7549264,76.8748108 L37.6731759,76.8748108 L40.6029493,71.0154594 C42.407885,71.0154594 55.7916755,71.0154594 57.6846997,71.0154594 L54.7549264,76.8748108 Z M40.602754,65.1561081 L37.6729806,59.2967567 L54.7547311,59.2967567 L57.6845044,65.1561081 C55.7912849,65.1561081 42.4082756,65.1561081 40.602754,65.1561081 Z M61.0523765,77.3820522 L64.2356729,71.0154594 L65.7136459,71.0154594 C67.1757981,84.1806889 78.3685088,94.4528648 91.9171479,94.4528648 C106.45605,94.4528648 118.284327,82.6245886 118.284327,68.0856861 C118.284327,53.5467836 106.45605,41.7187027 91.9171479,41.7187027 C78.3685088,41.7187027 67.1757981,51.9908786 65.7136459,65.1561081 L64.2356729,65.1561081 L61.0523765,58.7895153 C65.1228083,45.2461498 77.6936844,35.8593513 91.9171479,35.8593513 C109.686809,35.8593513 124.143678,50.3162202 124.143678,68.0858814 C124.143678,85.8555426 109.686809,100.312411 91.9171479,100.312411 C77.6938797,100.312411 65.1228083,90.9254177 61.0523765,77.3820522 Z M91.9171479,65.1561081 L83.6319443,65.1561081 C84.8413547,61.7464379 88.0977001,59.2967567 91.9171479,59.2967567 C96.7633837,59.2967567 100.706273,63.2394504 100.706273,68.0858814 C100.706273,72.9321172 96.763579,76.8750061 91.9171479,76.8750061 C88.0978954,76.8750061 84.8413547,74.425325 83.6319443,71.0156548 L91.9171479,71.0156548 C93.5351641,71.0156548 94.8469213,69.7038976 94.8469213,68.0858814 C94.8469213,66.4678653 93.5351641,65.1561081 91.9171479,65.1561081 Z M91.9171479,82.7343575 C99.9943377,82.7343575 106.565624,76.1630712 106.565624,68.0858814 C106.565624,60.0086917 99.9943377,53.4374054 91.9171479,53.4374054 C84.8431126,53.4374054 78.9245798,58.4779828 77.5634071,65.1561081 L71.619483,65.1561081 C73.0455013,55.2312079 81.6035645,47.578054 91.9171479,47.578054 C103.225096,47.578054 112.424975,56.7779329 112.424975,68.0858814 C112.424975,79.3938299 103.225096,88.5937088 91.9171479,88.5937088 C81.6039552,88.5937088 73.0455013,80.9405549 71.619483,71.0156548 L77.5634071,71.0156548 C78.9243845,77.6935848 84.8431126,82.7343575 91.9171479,82.7343575 Z M117.58333,112.421751 L66.2509663,112.421751 L69.2266394,98.6563083 C75.6354209,103.409963 83.5333086,106.171763 91.9171479,106.171763 C100.412123,106.171763 108.265674,103.375197 114.607656,98.6557223 L117.58333,112.421751 Z M124.143678,124.140453 L59.6906179,124.140453 L59.6906179,121.21068 C59.6906179,119.595203 61.0049142,118.280907 62.6203912,118.280907 L121.2141,118.280907 C122.829577,118.280907 124.143873,119.595203 124.143873,121.21068 L124.143873,124.140453 L124.143678,124.140453 Z" id="Shape"></path>
            </g>
        </g>
    </g>
</svg>