<?xml version="1.0" encoding="UTF-8"?>
<svg width="60px" height="15px" viewBox="0 0 60 15" version="1.1" xmlns="http://www.w3.org/2000/svg" xmlns:xlink="http://www.w3.org/1999/xlink">
    <!-- Generator: Sketch 46.2 (44496) - http://www.bohemiancoding.com/sketch -->
    <title>Page 1</title>
    <desc>Created with Sketch.</desc>
    <defs></defs>
    <g id="design" stroke="none" stroke-width="1" fill="none" fill-rule="evenodd">
        <g id="landing-page" transform="translate(-528.000000, -640.000000)" fill="#000000">
            <g id="1" transform="translate(330.000000, 580.000000)">
                <g id="Page-1" transform="translate(198.000000, 60.000000)">
                    <path d="M48.2910495,9.74563515 C48.3694822,10.2429923 48.3335613,10.8750714 47.8125436,11.0918421 C47.3646858,11.2778868 46.9385783,10.9689379 46.740519,10.54924 C46.4429358,9.9171609 46.7128368,9.14799624 47.0387613,8.58783638 C47.159706,8.37950689 47.3040487,8.19042339 47.4586074,8.01045642 C47.8830672,8.50072292 48.1885596,9.09431004 48.2910495,9.74563515 M44.3582056,7.40775277 C44.1907944,7.57016199 43.7897327,7.83184005 43.5521275,7.60055041 C43.3583524,7.41146691 43.4717174,7.19233265 43.5807983,7.0201316 C43.7930282,6.68417075 44.1868398,6.65513292 44.5516511,6.64567875 C44.6732549,6.64263991 44.7955178,6.64837994 44.916792,6.65952236 C44.7671765,6.93740757 44.5813106,7.191995 44.3582056,7.40775277 M57.9277363,7.59413508 C56.5841629,6.63723752 54.8454597,6.08450594 53.2415422,5.82991852 C51.7476943,5.59288885 50.2001298,5.6887812 48.8196469,6.35800172 C48.390903,6.56565591 47.9799547,6.83172341 47.6085524,7.14675002 C47.1448763,6.72874043 46.5948581,6.41033733 46.0039758,6.22361737 C45.9225771,6.19761839 45.8342578,6.17465825 45.7433022,6.15271106 C46.3658212,4.28044679 45.6592671,1.99692591 43.698777,1.2122294 C40.3900999,-0.112368025 37.5675083,2.87042414 34.6368245,3.8266464 C33.1439652,4.31387405 30.6265365,4.0143793 30.636423,1.89968297 C30.6403776,0.971147943 31.3604433,0.437662362 32.2169424,0.659835471 C32.5319918,0.741546554 32.8325409,0.917124087 33.0282933,1.18825632 C33.1574767,1.36754799 33.4863672,1.96687514 32.885928,2.00806833 C32.6694139,2.0229249 32.4990368,1.80210238 32.3039435,1.74537733 C32.6021858,1.8318155 32.9874292,1.27570743 32.6104246,1.15449141 C32.2469314,1.03766482 31.8465288,1.29461578 31.7559027,1.67615927 C31.6504468,2.12185608 32.0162468,2.4541028 32.4034675,2.57599412 C33.358502,2.87616418 34.1695233,1.963161 33.7602228,1.02753534 C33.4039798,0.213125709 32.4238995,-0.124523393 31.6132077,0.0409246672 C30.7168331,0.22393048 30.0781661,0.990393942 30.0069834,1.92196781 C29.9272324,2.95855056 30.5385468,3.8837091 31.4312964,4.32940591 C32.4380702,4.83250307 33.5957776,4.74403901 34.636495,4.40402636 C37.2030266,3.56598129 39.4189175,1.25173435 42.2747936,1.54143728 C43.5791505,1.67379572 44.7114827,2.46524522 45.1639541,3.7489871 C45.4170482,4.46716674 45.4101276,5.30554946 45.1702156,6.05648107 C44.2751591,5.9686923 43.2479533,6.15271106 42.9029149,7.02249515 C42.736822,7.44253063 42.813607,8.05300021 43.2528965,8.27145918 C43.6977884,8.49329464 44.2418746,8.19042339 44.5822992,7.90004516 C44.9625994,7.57522673 45.2621599,7.18625496 45.4846058,6.76183004 C45.732427,6.82767162 45.9739868,6.91883687 46.2020351,7.03296227 C46.5233459,7.19368324 46.8275201,7.40099979 47.1003871,7.64512009 C46.6989958,8.09014161 46.3717531,8.6010047 46.1707279,9.17129403 C45.7897687,10.2524465 46.1993987,12.151385 47.7113719,11.7374272 C49.0272631,11.3774933 49.1379917,9.78041301 48.7026568,8.69892294 C48.5253592,8.25896616 48.2719356,7.85750138 47.9634772,7.50634631 C48.5672119,7.00459975 49.3027665,6.66154826 50.0544689,6.48023069 C51.4922934,6.13346506 53.0065734,6.35597582 54.4091362,6.7594665 C55.7085499,7.13324405 57.060362,7.6616649 58.069113,8.61214712 C58.9895448,9.47923001 59.6034956,10.7771532 59.3840156,12.080141 C59.1523423,13.4574117 57.6973812,14.6239894 56.3205233,14.4237635 C54.9173015,14.2198234 54.1491216,12.5852641 55.0244051,11.395051 C55.483138,10.7710755 56.3020686,10.484749 56.9855542,10.9132257 C57.2772056,11.0958939 57.4956969,11.3967393 57.5088789,11.7546473 C57.5355724,12.4846447 56.7166418,12.7348427 56.3992857,12.0997247 C56.3040459,11.9092906 55.9873488,12.1189707 56.0493041,12.2952235 C56.5040824,13.5843678 58.1037157,12.6551575 58.0493401,11.554759 C57.9765096,10.0704536 56.1695896,9.88711013 55.2129074,10.5715249 C54.0640978,11.3933628 53.6145923,13.0964648 54.6233433,14.2215116 C55.633083,15.3485844 57.2923648,15.1321513 58.4220606,14.3319229 C60.941137,12.5481227 60.1966847,9.20978603 57.9277363,7.59413508" id="Fill-1"></path>
                    <path d="M15.4481123,6.64581109 C15.8129226,6.65526526 16.2070628,6.6839654 16.4189626,7.01992588 C16.5280432,7.19246438 16.6414079,7.41159841 16.4476333,7.60068169 C16.2103583,7.83197107 15.8092976,7.56995566 15.6415573,7.40754662 C15.4184529,7.19178908 15.232917,6.93753959 15.0833019,6.65965469 C15.2045758,6.64851228 15.3265088,6.64277226 15.4481123,6.64581109 M12.9610087,8.58762892 C13.2869323,9.14812581 13.5571622,9.91728961 13.2592502,10.549368 C13.061521,10.9690654 12.6354146,11.2776763 12.1872285,11.0916319 C11.666212,10.875199 11.6302912,10.242783 11.7087238,9.74576405 C11.8112135,9.09443966 12.1170346,8.5008532 12.5414932,8.01058725 C12.695722,8.19021637 12.8400643,8.3796373 12.9610087,8.58762892 M28.3868511,0.0410643544 C27.5761615,-0.12472117 26.5957543,0.212927556 26.2395122,1.02767393 C25.8302128,1.96329855 26.641232,2.87630071 27.5962639,2.57579334 C27.9838131,2.45390215 28.3492826,2.12199346 28.243827,1.67629714 C28.1535307,1.29441643 27.7527995,1.0378034 27.3893074,1.15462985 C27.0126333,1.27584575 27.3982052,1.8319532 27.6957876,1.74551513 C27.5006948,1.80190246 27.3306477,2.02306238 27.1138047,2.00820584 C26.5133671,1.96701269 26.8422566,1.36734855 26.9717693,1.18805708 C27.1678507,0.9172628 27.4680695,0.741685462 27.783118,0.65997447 C28.6392854,0.437801608 29.3593492,0.971286596 29.3636333,1.89982059 C29.3731902,4.01451457 26.8557681,4.31400899 25.3629128,3.82678188 C22.4322367,2.87022303 19.6096526,-0.112228167 16.3009842,1.21236779 C14.3408288,1.99706343 13.633947,4.28058176 14.2567939,6.15284395 C14.1658385,6.17445347 14.0775195,6.19775123 13.996121,6.22375019 C13.4052402,6.41013228 12.854894,6.72887268 12.3915486,7.1468818 C12.0201473,6.83185554 11.6092001,6.56578835 11.1804573,6.35779673 C9.79964853,5.6889146 8.2520881,5.59302236 6.7582441,5.83005177 C5.1546604,6.08463891 3.4156322,6.63736988 2.07206238,7.59426637 C-0.196880028,9.20991552 -0.941000866,12.5479108 1.57806897,14.3320467 C2.70776172,15.1319365 4.36670959,15.348707 5.37677618,14.2216356 C6.38519503,13.09659 5.93602023,11.3934898 4.78688411,10.5713152 C3.8302044,9.88723887 2.02361873,10.0705821 1.95045893,11.5548859 C1.89608341,12.6552831 3.49571253,13.5844924 3.95048965,12.2950119 C4.01277435,12.1187593 3.69574855,11.9090794 3.60050899,12.099851 C3.28315365,12.7346306 2.46455482,12.4847705 2.49124826,11.7544363 C2.5044302,11.3968663 2.72292096,11.0956837 3.01457151,10.9130157 C3.69805539,10.4848771 4.51665422,10.7708656 4.97571548,11.3948404 C5.85066713,12.5850522 5.08248924,14.2199473 3.67927112,14.4238872 C2.30241689,14.6237752 0.847459624,13.4571989 0.615786927,12.0802673 C0.396307531,10.7769433 1.01025665,9.47935921 1.93068602,8.61227728 C2.93943441,7.66179611 4.2915725,7.13303821 5.59065325,6.75959872 C6.99354183,6.35610849 8.5074883,6.13359798 9.94563858,6.48036322 C10.6970095,6.66134294 11.4325621,7.00473169 12.0362952,7.50614005 C11.7278376,7.85729472 11.4744147,8.25909671 11.2971176,8.699053 C10.8621134,9.78054187 10.9725122,11.3776203 12.2883999,11.7375539 C13.8003691,12.1511736 14.209998,10.2525748 13.8290398,9.17142357 C13.6283447,8.60113487 13.3007733,8.0899347 12.9000422,7.64525132 C13.1725789,7.4011313 13.4767523,7.19381498 13.7977327,7.03309418 C14.0261099,6.91896891 14.2673395,6.82780376 14.5151601,6.76162461 C14.737935,7.18638671 15.0371651,7.57502039 15.4174643,7.89983846 C15.757888,8.19055402 16.3019728,8.49308728 16.7468635,8.27158971 C17.1861518,8.05279334 17.2632662,7.44266209 17.0968441,7.02262707 C16.7518067,6.15284395 15.7246036,5.9688254 14.8295495,6.05661407 C14.5899676,5.3056833 14.5830471,4.46730151 14.8361405,3.74878502 C15.2886107,2.46538221 16.4206103,1.67359595 17.7249639,1.54123765 C20.5808324,1.25153504 22.7967175,3.56577941 25.3632423,4.4041612 C26.4039569,4.74383582 27.5619909,4.83263743 28.5684324,4.32954083 C29.4611797,3.88350686 30.0724924,2.958687 29.9930712,1.92176776 C29.9215592,0.990194925 29.2828939,0.224069964 28.3868511,0.0410643544" id="Fill-4"></path>
                </g>
            </g>
        </g>
    </g>
</svg>