<?xml version="1.0" encoding="UTF-8"?>
<svg width="366px" height="32px" viewBox="0 0 366 32" version="1.1" xmlns="http://www.w3.org/2000/svg" xmlns:xlink="http://www.w3.org/1999/xlink">
    <!-- Generator: Sketch 46.2 (44496) - http://www.bohemiancoding.com/sketch -->
    <title>Page 1</title>
    <desc>Created with Sketch.</desc>
    <defs></defs>
    <g id="design" stroke="none" stroke-width="1" fill="none" fill-rule="evenodd">
        <g id="landing-page" transform="translate(-677.000000, -310.000000)" fill="#FFFFFF">
            <g id="Page-1" transform="translate(677.000000, 310.000000)">
                <g id="Group-6">
                    <path d="M28.8806957,17.2895803 C25.8421911,17.417395 22.5277229,18.84006 20.1769487,20.7718053 C18.1849272,22.4087052 16.1021281,25.4726275 16.8828147,28.1712611 C17.5531157,30.487903 19.5088263,31.8822455 21.9155194,31.7035953 C24.9503929,31.4777409 26.7187387,28.4929766 24.7579446,25.9345034 C24.4478487,25.5299989 23.6090645,25.5989898 23.9271489,26.230075 C25.3701481,29.0855721 21.3171141,31.8038137 19.0963333,29.7202884 C17.8951654,28.5924687 18.025885,27.0724902 18.5567518,25.6839575 C20.2975012,21.1291055 24.9002837,19.4094165 29.1355989,17.9264752 C29.5125071,17.7943032 29.1828032,17.2765083 28.8806957,17.2895803" id="Fill-18"></path>
                    <path d="M24.3372454,3.63751524 C24.1978111,1.69850777 22.1948963,0.635321651 20.401859,0.851008998 C17.9254488,1.14948543 16.5637862,3.44361449 17.2239202,5.78640029 C18.5855828,10.6186683 24.4803107,14.6920365 29.2203488,15.5170224 C29.8536127,15.6274079 29.5420643,14.7864451 29.2218013,14.6143309 C26.3292669,13.0638512 23.3045605,12.116134 20.9646796,9.66877255 C19.9465191,8.60340777 18.7889244,7.13353844 18.4483272,5.66149045 C17.7896456,2.81833905 22.2188615,-0.22016554 23.5863339,3.49154501 C23.6763851,3.73628116 24.3728301,4.13279729 24.3372454,3.63751524" id="Fill-15"></path>
                    <path d="M12.5723357,8.08205442 C13.70887,9.91503376 15.0117088,11.6637716 16.5004598,13.2280495 C17.7764284,14.5701041 19.293502,16.130751 21.0698362,16.764741 C21.7314227,17.0007626 21.729244,16.2142663 21.3632291,15.893277 C19.8766567,14.5868072 18.2550074,13.586076 16.8701058,12.1292786 C15.5774342,10.770521 14.4300065,9.28685344 13.230291,7.84821157 C12.98265,7.5519138 12.2716806,7.59766566 12.5723357,8.08205442" id="Fill-21"></path>
                    <path d="M21.1039686,15.8860874 C17.8127394,16.5331495 13.1170007,19.2891545 12.6543986,22.9732687 C12.5999321,23.4097269 13.3762613,23.9304267 13.7037865,23.5491611 C14.8548452,22.2056541 15.4474408,20.6195896 16.8083771,19.3937302 C18.2201488,18.1228451 19.8628585,17.363219 21.5694756,16.58108 C21.9703491,16.3980726 21.4009926,15.8279898 21.1039686,15.8860874" id="Fill-23"></path>
                    <path d="M8.87594839,11.7840336 C10.0393529,13.7106953 11.604357,15.9496317 13.8527342,16.6482554 C14.3690767,16.80875 14.3661718,16.2314051 14.0800411,15.9735969 C13.3000808,15.2691635 12.4031991,14.7121528 11.6610022,13.9626937 C10.9129956,13.2066987 10.2702908,12.3461279 9.59127511,11.5298566 C9.3225737,11.2066887 8.55568536,11.253893 8.87594839,11.7840336" id="Fill-25"></path>
                    <path d="M13.5829435,15.6889187 C12.5030543,15.9982884 11.4841676,16.3998881 10.6250493,17.1435374 C9.81095667,17.8494233 8.93586154,19.0062918 8.99541158,20.1333853 C9.01501952,20.5081148 9.59672176,21.0026706 9.9278781,20.6446442 C10.3026076,20.2401396 10.445673,19.6860337 10.7158268,19.2103596 C10.9533008,18.7913306 11.2423363,18.4035292 11.5858384,18.0658368 C12.2946292,17.3693918 13.2350841,16.9125994 14.1276085,16.5008327 C14.5771387,16.29386 13.9453273,15.5850692 13.5829435,15.6889187" id="Fill-27"></path>
                    <path d="M9.45576246,15.9563129 C7.50368303,15.0725031 5.25022229,14.3571764 3.08245551,14.5220284 C2.2698153,14.5844833 -0.154307143,14.9396049 0.144895507,16.2221094 C0.386000556,17.2518894 2.23931406,17.8568307 3.13256469,17.9744784 C5.31122477,18.2620615 7.58429345,17.7253849 9.53855154,16.7762153 C10.0817641,16.5125975 9.31269711,15.7275536 8.89657304,15.8183311 C7.09191627,16.2133948 2.57555393,17.9410722 1.21607005,15.9316214 C1.27126277,16.1335106 1.32572927,16.3346735 1.38092199,16.5372889 C1.79123631,15.3506454 4.80069209,15.5939291 5.60316522,15.7014097 C6.91762347,15.8793336 8.15437617,16.3666272 9.45503624,16.5997439 C9.89076825,16.6774494 9.70703459,16.0703295 9.45576246,15.9563129" id="Fill-29"></path>
                </g>
                <path d="M341.917726,3.72117578 C343.204588,0.546868052 347.968591,2.04142886 346.987468,5.48371179 C346.574249,6.9346994 345.458775,8.36753151 344.436257,9.44814691 C342.032469,11.9855597 338.930783,12.8243438 336.049868,14.5759865 C335.529895,14.8926184 336.272818,15.5723604 336.676596,15.5106317 C341.189328,14.8221751 347.829157,10.4437946 348.424658,5.48952155 C348.663584,3.49822624 347.497275,1.68485483 345.599662,1.04069767 C343.723109,0.403802707 341.310606,1.19901363 341.166815,3.40236519 C341.146481,3.721902 341.760136,4.1097035 341.917726,3.72117578" id="Fill-1"></path>
                <path d="M336.536654,17.9136937 C340.933916,19.3145722 345.786518,21.1613497 347.210636,26.0509891 C347.557769,27.2434424 347.228791,28.5411976 346.350791,29.4562348 C345.573009,30.2659702 344.453904,30.5215996 343.360217,30.2964714 C341.391435,29.8897882 340.84096,28.0880363 341.62673,26.4184565 C341.828619,25.9892604 340.989109,25.3806881 340.668846,25.7692158 C338.695706,28.1650156 340.792303,31.1526848 343.451721,31.6283589 C346.003658,32.0844251 348.152543,30.7844913 348.714637,28.2274706 C349.286172,25.6276029 347.148181,22.6275879 345.294867,21.0262728 C342.969511,19.0175482 339.520692,17.4285788 336.449507,17.2898707 C335.991989,17.2688104 336.267226,17.8279998 336.536654,17.9136937" id="Fill-3"></path>
                <path d="M352.212839,7.71683837 C350.922346,9.1830766 349.717547,10.7212106 348.353706,12.1213628 C346.997853,13.5128004 345.260735,14.4685059 343.931752,15.8323472 C343.554844,16.2186962 344.317375,16.9100577 344.720427,16.7866003 C346.419056,16.2659005 347.907081,14.6979915 349.10026,13.4336424 C350.562867,11.8846151 351.850455,10.1445919 352.928892,8.30870769 C353.145306,7.94051413 352.513494,7.37478873 352.212839,7.71683837" id="Fill-5"></path>
                <path d="M344.208079,16.5952413 C345.911791,17.3178302 347.532714,18.0767301 348.925604,19.327281 C350.234253,20.502305 350.883493,21.980889 351.883498,23.3716004 C352.163819,23.7608543 352.924172,23.8124159 352.831216,23.1885929 C352.280741,19.5117409 347.511654,16.6025035 344.208079,15.9009749 C343.618388,15.7753389 343.836981,16.4383778 344.208079,16.5952413" id="Fill-7"></path>
                <path d="M355.846045,11.3875901 C355.121278,12.2096712 354.445893,13.0825876 353.666659,13.8545595 C352.90558,14.6091021 351.987638,15.1428739 351.262145,15.9264653 C350.973835,16.2380137 351.558442,16.7470939 351.872896,16.665031 C354.064628,16.0942221 355.558462,13.9024901 356.624553,12.0317473 C356.854039,11.6294214 356.175749,11.0135868 355.846045,11.3875901" id="Fill-9"></path>
                <path d="M351.57914,16.4676444 C352.45133,16.8503624 353.374355,17.27157 354.067169,17.9418711 C354.820986,18.6717222 355.054829,19.6615601 355.650329,20.4865461 C355.85004,20.7632359 356.476041,20.9215518 356.508721,20.4429729 C356.5857,19.3107958 355.598767,18.0653285 354.812271,17.3391085 C353.927735,16.5221109 352.836226,16.0478893 351.696787,15.7065658 C351.123073,15.5344517 351.155027,16.2817321 351.57914,16.4676444" id="Fill-11"></path>
                <path d="M356.328982,16.5952413 C357.579533,16.3933521 358.769807,15.9234878 360.025442,15.7346706 C361.09589,15.5734497 362.301415,15.5030064 363.348624,15.858128 C363.584646,15.9365597 363.8105,16.0367781 364.026188,16.1595093 C364.183051,15.8181859 364.151098,15.7586358 363.931053,15.9801329 C361.959366,17.7041793 358.533059,16.3563149 356.34278,15.83852 C355.662312,15.6772992 355.695718,16.5080949 356.204072,16.7368542 C358.116209,17.5974249 360.210628,18.1711387 362.328285,18.0186325 C363.181594,17.9576301 365.397291,17.4950279 365.400922,16.317099 C365.40528,15.2059824 363.375495,14.7019857 362.577379,14.5821594 C360.339895,14.2459195 357.880188,14.930745 355.882356,15.9292975 C355.496007,16.1224721 356.049387,16.6402669 356.328982,16.5952413" id="Fill-13"></path>
                <g id="Group-31" transform="translate(37.000000, 15.542200)">
                    <path d="M111.297002,1.63583286 C146.627355,1.64599994 181.957708,1.66488166 217.288061,1.67867984 C238.452324,1.68666826 259.616587,1.68231094 280.780849,1.6844896 C282.316748,1.6844896 281.355641,0.393270397 280.216594,0.393270397 C278.377496,0.393270397 279.338603,1.6844896 280.47765,1.6844896 C283.599785,1.6844896 286.718409,1.69756156 289.838203,1.62566578 C291.374102,1.590081 290.149597,0.176130609 288.875925,0.505834501 C289.254047,0.46661862 289.303214,0.450641779 289.025769,0.45935642 C287.645567,0.45935642 288.50951,1.61840358 289.532662,1.61840358 C289.74221,1.62929688 289.758599,1.62130846 289.58183,1.59443832 C291.0311,1.88565255 290.663515,0.48259546 289.325457,0.452094219 C286.188103,0.381650877 283.051919,0.393270397 279.913394,0.393270397 C278.377496,0.393270397 279.338603,1.6844896 280.47765,1.6844896 C282.316748,1.6844896 281.355641,0.393270397 280.216594,0.393270397 C208.126519,0.399806377 136.036444,0.434664939 63.9475396,0.454999099 C42.8148845,0.46153508 21.6541336,0.325731935 0.526161154,0.613315065 C-0.492308265,0.627113245 0.153893022,1.45427785 0.898429286,1.46444494 C37.6733699,1.95972699 74.5138671,1.62566578 111.297002,1.63583286 Z" id="Fill-32"></path>
                </g>
            </g>
        </g>
    </g>
</svg>