<?xml version="1.0" encoding="UTF-8"?>
<svg width="32px" height="30px" viewBox="0 0 32 30" version="1.1" xmlns="http://www.w3.org/2000/svg" xmlns:xlink="http://www.w3.org/1999/xlink">
    <!-- Generator: Sketch 46.2 (44496) - http://www.bohemiancoding.com/sketch -->
    <title>Page 1</title>
    <desc>Created with Sketch.</desc>
    <defs></defs>
    <g id="design" stroke="none" stroke-width="1" fill="none" fill-rule="evenodd">
        <g id="landing-page" transform="translate(-844.000000, -500.000000)" fill="#FFFFFF">
            <g id="Page-1" transform="translate(844.000000, 500.000000)">
                <g id="Group-6" transform="translate(16.000000, 15.000000) rotate(-90.000000) translate(-16.000000, -15.000000) translate(1.000000, -1.000000)">
                    <path d="M28.8806957,17.2895803 C25.8421911,17.417395 22.5277229,18.84006 20.1769487,20.7718053 C18.1849272,22.4087052 16.1021281,25.4726275 16.8828147,28.1712611 C17.5531157,30.487903 19.5088263,31.8822455 21.9155194,31.7035953 C24.9503929,31.4777409 26.7187387,28.4929766 24.7579446,25.9345034 C24.4478487,25.5299989 23.6090645,25.5989898 23.9271489,26.230075 C25.3701481,29.0855721 21.3171141,31.8038137 19.0963333,29.7202884 C17.8951654,28.5924687 18.025885,27.0724902 18.5567518,25.6839575 C20.2975012,21.1291055 24.9002837,19.4094165 29.1355989,17.9264752 C29.5125071,17.7943032 29.1828032,17.2765083 28.8806957,17.2895803" id="Fill-18"></path>
                    <path d="M24.3372454,3.63751524 C24.1978111,1.69850777 22.1948963,0.635321651 20.401859,0.851008998 C17.9254488,1.14948543 16.5637862,3.44361449 17.2239202,5.78640029 C18.5855828,10.6186683 24.4803107,14.6920365 29.2203488,15.5170224 C29.8536127,15.6274079 29.5420643,14.7864451 29.2218013,14.6143309 C26.3292669,13.0638512 23.3045605,12.116134 20.9646796,9.66877255 C19.9465191,8.60340777 18.7889244,7.13353844 18.4483272,5.66149045 C17.7896456,2.81833905 22.2188615,-0.22016554 23.5863339,3.49154501 C23.6763851,3.73628116 24.3728301,4.13279729 24.3372454,3.63751524" id="Fill-15"></path>
                    <path d="M12.5723357,8.08205442 C13.70887,9.91503376 15.0117088,11.6637716 16.5004598,13.2280495 C17.7764284,14.5701041 19.293502,16.130751 21.0698362,16.764741 C21.7314227,17.0007626 21.729244,16.2142663 21.3632291,15.893277 C19.8766567,14.5868072 18.2550074,13.586076 16.8701058,12.1292786 C15.5774342,10.770521 14.4300065,9.28685344 13.230291,7.84821157 C12.98265,7.5519138 12.2716806,7.59766566 12.5723357,8.08205442" id="Fill-21"></path>
                    <path d="M21.1039686,15.8860874 C17.8127394,16.5331495 13.1170007,19.2891545 12.6543986,22.9732687 C12.5999321,23.4097269 13.3762613,23.9304267 13.7037865,23.5491611 C14.8548452,22.2056541 15.4474408,20.6195896 16.8083771,19.3937302 C18.2201488,18.1228451 19.8628585,17.363219 21.5694756,16.58108 C21.9703491,16.3980726 21.4009926,15.8279898 21.1039686,15.8860874" id="Fill-23"></path>
                    <path d="M8.87594839,11.7840336 C10.0393529,13.7106953 11.604357,15.9496317 13.8527342,16.6482554 C14.3690767,16.80875 14.3661718,16.2314051 14.0800411,15.9735969 C13.3000808,15.2691635 12.4031991,14.7121528 11.6610022,13.9626937 C10.9129956,13.2066987 10.2702908,12.3461279 9.59127511,11.5298566 C9.3225737,11.2066887 8.55568536,11.253893 8.87594839,11.7840336" id="Fill-25"></path>
                    <path d="M13.5829435,15.6889187 C12.5030543,15.9982884 11.4841676,16.3998881 10.6250493,17.1435374 C9.81095667,17.8494233 8.93586154,19.0062918 8.99541158,20.1333853 C9.01501952,20.5081148 9.59672176,21.0026706 9.9278781,20.6446442 C10.3026076,20.2401396 10.445673,19.6860337 10.7158268,19.2103596 C10.9533008,18.7913306 11.2423363,18.4035292 11.5858384,18.0658368 C12.2946292,17.3693918 13.2350841,16.9125994 14.1276085,16.5008327 C14.5771387,16.29386 13.9453273,15.5850692 13.5829435,15.6889187" id="Fill-27"></path>
                    <path d="M9.45576246,15.9563129 C7.50368303,15.0725031 5.25022229,14.3571764 3.08245551,14.5220284 C2.2698153,14.5844833 -0.154307143,14.9396049 0.144895507,16.2221094 C0.386000556,17.2518894 2.23931406,17.8568307 3.13256469,17.9744784 C5.31122477,18.2620615 7.58429345,17.7253849 9.53855154,16.7762153 C10.0817641,16.5125975 9.31269711,15.7275536 8.89657304,15.8183311 C7.09191627,16.2133948 2.57555393,17.9410722 1.21607005,15.9316214 C1.27126277,16.1335106 1.32572927,16.3346735 1.38092199,16.5372889 C1.79123631,15.3506454 4.80069209,15.5939291 5.60316522,15.7014097 C6.91762347,15.8793336 8.15437617,16.3666272 9.45503624,16.5997439 C9.89076825,16.6774494 9.70703459,16.0703295 9.45576246,15.9563129" id="Fill-29"></path>
                </g>
            </g>
        </g>
    </g>
</svg>