<?xml version="1.0" encoding="UTF-8"?>
<svg width="100px" height="100px" viewBox="0 0 100 100" version="1.1" xmlns="http://www.w3.org/2000/svg" xmlns:xlink="http://www.w3.org/1999/xlink">
    <!-- Generator: Sketch 46.2 (44496) - http://www.bohemiancoding.com/sketch -->
    <title>Group 2</title>
    <desc>Created with Sketch.</desc>
    <defs></defs>
    <g id="design" stroke="none" stroke-width="1" fill="none" fill-rule="evenodd">
        <g id="landing-page" transform="translate(-360.000000, -610.000000)" fill-rule="nonzero" fill="#CAF3FF">
            <g id="1" transform="translate(330.000000, 580.000000)">
                <g id="Group-2" transform="translate(30.000000, 30.000000)">
                    <path d="M91.0080757,0 C88.7630465,0 86.7133389,0.848732943 85.1601225,2.24074074 C83.6071011,0.848732943 81.5571986,0 79.3121693,0 L20.8326371,0 C18.5876079,0 16.5379003,0.848732943 14.9846839,2.24074074 C13.4314676,0.848732943 11.38176,0 9.13673072,0 C4.28936229,0 0.169869117,3.91734893 0.169869117,8.77192982 C0.169869117,13.6202729 4.28214982,17.5438596 9.13673072,17.5438596 C11.38176,17.5438596 13.4314676,16.6951267 14.9846839,15.3031189 C15.8287385,16.0596491 16.8195767,16.6545809 17.9086605,17.0409357 L17.9086605,73.4892788 C17.9086605,74.5163743 18.447452,75.4680312 19.3281537,75.9964912 L23.7566138,78.6538012 L23.7566138,85.1851852 C23.7566138,86.8 25.0657755,88.1091618 26.6805904,88.1091618 C28.2954052,88.1091618 29.604567,86.8 29.604567,85.1851852 L29.604567,82.162768 L35.4525202,85.6717349 L35.4525202,91.0331384 C35.4525202,92.6479532 36.761682,93.957115 38.3764968,93.957115 C39.9913116,93.957115 41.3004734,92.6479532 41.3004734,91.0331384 L41.3004734,89.1807018 L47.1484266,92.6896686 L47.1484266,96.8810916 C47.1484266,98.4959064 48.4575884,99.8050682 50.0724032,99.8050682 C51.687218,99.8050682 52.9963798,98.4959064 52.9963798,96.8810916 L52.9963798,92.6875244 L58.8443331,89.1789474 L58.8443331,91.0331384 C58.8443331,92.6479532 60.1534948,93.957115 61.7683097,93.957115 C63.3831245,93.957115 64.6922863,92.6479532 64.6922863,91.0331384 L64.6922863,85.6705653 L70.5402395,82.1619883 L70.5402395,85.1851852 C70.5402395,86.8 71.8494013,88.1091618 73.4642161,88.1091618 C75.0790309,88.1091618 76.3881927,86.8 76.3881927,85.1851852 L76.3881927,78.6534113 L80.8164578,75.9966862 C81.6971596,75.4682261 82.2361459,74.5163743 82.2361459,73.4892788 L82.2361459,17.0409357 C83.3252297,16.6545809 84.3160679,16.0596491 85.1601225,15.3031189 C86.7133389,16.6951267 88.7630465,17.5438596 91.0080757,17.5438596 C95.8556391,17.5438596 99.9749373,13.6265107 99.9749373,8.77192982 C99.9749373,3.92319688 95.8622668,0 91.0080757,0 Z M9.13673072,11.6959064 C7.47532721,11.6959064 6.01782233,10.3296296 6.01782233,8.77192982 C6.01782233,7.21423002 7.47532721,5.84795322 9.13673072,5.84795322 C10.7490114,5.84795322 12.0607073,7.15964912 12.0607073,8.77192982 C12.0607073,10.3842105 10.7490114,11.6959064 9.13673072,11.6959064 Z M76.3881927,71.8337232 L50.0706488,87.6231969 L23.7566138,71.8337232 L23.7566138,17.5438596 L76.3881927,17.5438596 L76.3881927,71.8337232 Z M79.3121693,11.6959064 L20.8326371,11.6959064 C19.2203564,11.6959064 17.9086605,10.3842105 17.9086605,8.77192982 C17.9086605,7.15964912 19.2203564,5.84795322 20.8326371,5.84795322 L79.3121693,5.84795322 C80.92445,5.84795322 82.2361459,7.15964912 82.2361459,8.77192982 C82.2361459,10.3842105 80.92445,11.6959064 79.3121693,11.6959064 Z M91.0080757,11.6959064 C89.395795,11.6959064 88.0840991,10.3842105 88.0840991,8.77192982 C88.0840991,7.15964912 89.395795,5.84795322 91.0080757,5.84795322 C92.6694793,5.84795322 94.1269841,7.21423002 94.1269841,8.77192982 C94.1269841,10.3296296 92.6694793,11.6959064 91.0080757,11.6959064 Z" id="Shape"></path>
                    <path d="M66.3086605,35.7861598 L62.4585631,37.7111111 L64.3835143,33.8610136 C65.3532999,31.9220273 63.941604,29.6296296 61.7683097,29.6296296 L38.3764968,29.6296296 C36.2084656,29.6296296 34.7893623,31.9173489 35.7610972,33.8612086 L37.6860485,37.711306 L33.835951,35.7863548 C31.8895572,34.8130604 29.604567,36.237037 29.604567,38.4015595 L29.604567,61.7933723 C29.604567,63.9617934 31.8920913,65.3803119 33.8361459,64.4087719 L37.6862434,62.4838207 L35.7612921,66.3339181 C34.7915065,68.2729045 36.2032025,70.5653021 38.3764968,70.5653021 L61.7683097,70.5653021 C63.9363409,70.5653021 65.3554442,68.2775828 64.3837093,66.3337232 L62.458758,62.4836257 L66.3088555,64.408577 C68.2478418,65.3783626 70.5402395,63.9666667 70.5402395,61.7933723 L70.5402395,38.4015595 C70.5402395,36.2331384 68.2525202,34.814425 66.3086605,35.7861598 Z M64.6922863,57.0623782 L57.2279588,53.3302144 C56.1026177,52.7674464 54.7427736,52.9879142 53.8529101,53.8779727 C52.9630465,54.7678363 52.7423837,56.1274854 53.3051518,57.2530214 L57.0371206,64.7173489 L43.1074909,64.7173489 L46.8396547,57.2530214 C47.4024227,56.1274854 47.18176,54.7678363 46.2918964,53.8779727 C45.4018379,52.9879142 44.0421888,52.7674464 42.9168477,53.3302144 L35.4525202,57.0621832 L35.4525202,43.1327485 L42.9168477,46.8649123 C44.0423837,47.4276803 45.4022278,47.2070175 46.2918964,46.317154 C47.18176,45.4272904 47.4024227,44.0676413 46.8396547,42.9421053 L43.1076859,35.4775828 L57.0373155,35.4775828 L53.3051518,42.9419103 C52.7423837,44.0674464 52.9630465,45.4270955 53.8529101,46.3169591 C54.7427736,47.2068226 56.1022278,47.4272904 57.2279588,46.8647173 L64.6922863,43.1327485 L64.6922863,57.0623782 Z" id="Shape"></path>
                </g>
            </g>
        </g>
    </g>
</svg>