<?xml version="1.0" encoding="UTF-8"?>
<svg width="88px" height="100px" viewBox="0 0 88 100" version="1.1" xmlns="http://www.w3.org/2000/svg" xmlns:xlink="http://www.w3.org/1999/xlink">
    <!-- Generator: Sketch 46.2 (44496) - http://www.bohemiancoding.com/sketch -->
    <title>Shape Copy</title>
    <desc>Created with Sketch.</desc>
    <defs></defs>
    <g id="design" stroke="none" stroke-width="1" fill="none" fill-rule="evenodd">
        <g id="landing-page" transform="translate(-1113.000000, -610.000000)" fill-rule="nonzero" fill="#E6DFFF">
            <g id="3" transform="translate(1070.000000, 580.000000)">
                <path d="M129.643045,124.998828 C126.479016,121.820312 124.664167,117.423242 124.664167,112.934766 L124.664167,99.1265625 C128.147651,97.0970703 130.497194,93.3123047 130.497194,88.984375 C130.497194,82.5226562 125.263802,77.265625 118.831139,77.265625 C117.235612,77.265625 115.713969,77.5898438 114.327653,78.175 L117.441129,59.1603516 C121.539997,58.4324219 124.664167,54.8310547 124.664167,50.5080078 C124.664167,45.6617187 120.739123,41.7189453 115.914626,41.7189453 C112.112464,41.7189453 108.870662,44.1683594 107.666725,47.5783203 L105.131497,47.5783203 L95.2312935,40.9480469 C95.405701,40.2570312 95.4992239,39.5337891 95.4992239,38.7890625 C95.4992239,33.9427734 91.5741797,30 86.7496827,30 C81.9251857,30 78.0001415,33.9427734 78.0001415,38.7890625 C78.0001415,39.5337891 78.0936644,40.2570312 78.2680719,40.9480469 L68.3674799,47.578125 L65.8322518,47.578125 C64.6283149,44.1681641 61.3865127,41.71875 57.5843509,41.71875 C52.7598539,41.71875 48.8348098,45.6615234 48.8348098,50.5078125 C48.8348098,54.8308594 51.9589793,58.4324219 56.0580421,59.1601562 L59.1715177,78.1748047 C57.7850071,77.5898438 56.2635591,77.265625 54.6678372,77.265625 C48.2351745,77.265625 43.0017823,82.5226562 43.0017823,88.984375 C43.0017823,93.3123047 45.3513258,97.0970703 48.8348098,99.1265625 L48.8348098,112.934766 C48.8348098,117.423242 47.0201549,121.820312 43.8561264,124.998633 C42.026889,126.836133 43.3218211,130 45.918296,130 L63.4173784,130 C65.0280717,130 66.3338921,128.688281 66.3338921,127.070312 L66.3338921,124.140625 L107.165084,124.140625 L107.165084,127.070312 C107.165084,128.688281 108.470905,130 110.081598,130 L127.58068,130 C130.167434,130 131.478893,126.843164 129.643045,124.998828 Z M115.914626,47.578125 C117.522791,47.578125 118.831139,48.8923828 118.831139,50.5078125 C118.831139,52.1232422 117.522791,53.4375 115.914626,53.4375 C114.30646,53.4375 112.998112,52.1232422 112.998112,50.5078125 C112.998112,48.8923828 114.30646,47.578125 115.914626,47.578125 Z M86.7494883,35.859375 C88.3576539,35.859375 89.666002,37.1736328 89.666002,38.7890625 C89.666002,40.4044922 88.3576539,41.71875 86.7494883,41.71875 C85.1413226,41.71875 83.8329745,40.4044922 83.8329745,38.7890625 C83.8329745,37.1736328 85.1413226,35.859375 86.7494883,35.859375 Z M65.8322518,53.4375 L69.2504059,53.4375 C69.8261257,53.4375 70.3890128,53.2664063 70.8680988,52.9455078 L81.5067632,45.8210938 C82.9691032,46.9238281 84.7845357,47.578125 86.7494883,47.578125 C88.7144408,47.578125 90.5300678,46.9238281 91.9922133,45.8210938 L102.630878,52.9455078 C103.109964,53.2664063 103.672851,53.4375 104.248571,53.4375 L107.666725,53.4375 C108.385354,55.4728516 109.829806,57.1654297 111.686847,58.1994141 L107.502039,83.7576172 C106.495647,83.3509766 105.39826,83.125 104.248765,83.125 L101.845558,83.125 L104.049276,69.5308594 C104.885732,64.4894531 101.293948,59.296875 94.9993334,59.296875 C93.795591,55.8865234 90.5518444,53.4375 86.7494883,53.4375 C82.9471321,53.4375 79.7033855,55.8865234 78.4996431,59.296875 C72.20114,59.296875 68.6153836,64.5011719 69.4481455,69.5201172 L71.6536132,83.125 L69.2504059,83.125 C68.1009106,83.125 67.0035237,83.3509766 65.9969376,83.7576172 L61.8121293,58.1994141 C63.6691708,57.1652344 65.1136228,55.4728516 65.8322518,53.4375 Z M104.248571,88.984375 C105.856736,88.984375 107.165084,90.2986328 107.165084,91.9140625 C107.165084,92.1160156 107.144669,92.3132812 107.105782,92.5037109 C106.83338,93.8375 105.655691,94.84375 104.248571,94.84375 L69.2504059,94.84375 C67.6422402,94.84375 66.3338921,93.5294922 66.3338921,91.9140625 C66.3338921,90.2986328 67.6422402,88.984375 69.2504059,88.984375 C70.6400274,88.984375 102.85856,88.984375 104.248571,88.984375 Z M78.0806373,65.15625 L80.9166552,65.15625 C82.5273485,65.15625 83.833169,63.8445312 83.833169,62.2265625 C83.833169,60.6111328 85.141517,59.296875 86.7496827,59.296875 C88.3578484,59.296875 89.6661964,60.6111328 89.6661964,62.2265625 C89.6661964,63.8445312 90.9720168,65.15625 92.5827102,65.15625 L95.4187281,65.15625 C97.216856,65.15625 98.5946171,66.7650391 98.2938273,68.5783203 L95.9357288,83.125 L77.5636366,83.125 L75.2037881,68.5675781 C74.9070815,66.7783203 76.2737598,65.15625 78.0806373,65.15625 Z M57.5843509,53.4375 C55.9761853,53.4375 54.6678372,52.1232422 54.6678372,50.5078125 C54.6678372,48.8923828 55.9761853,47.578125 57.5843509,47.578125 C59.1925166,47.578125 60.5008647,48.8923828 60.5008647,50.5078125 C60.5008647,52.1232422 59.1925166,53.4375 57.5843509,53.4375 Z M107.165084,118.28125 L66.3338921,118.28125 L66.3338921,115.351562 C66.3338921,113.736133 67.6422402,112.421875 69.2504059,112.421875 L104.248571,112.421875 C105.856736,112.421875 107.165084,113.736133 107.165084,115.351562 L107.165084,118.28125 Z M118.830945,94.84375 C117.220252,94.84375 115.914431,96.1554687 115.914431,97.7734375 C115.914431,99.3914062 117.220252,100.703125 118.830945,100.703125 L118.830945,112.934766 C118.831139,116.861914 119.864752,120.736523 121.759319,124.140625 L112.998306,124.140625 L112.998306,115.351562 C112.998306,110.505273 109.073262,106.5625 104.248765,106.5625 L69.2506003,106.5625 C64.4261033,106.5625 60.5010591,110.505273 60.5010591,115.351562 L60.5010591,124.140625 L51.7398519,124.140625 C53.6344192,120.736523 54.6678372,116.861914 54.6678372,112.934766 L54.6678372,100.703125 C56.2785305,100.703125 57.5843509,99.3914062 57.5843509,97.7734375 C57.5843509,96.1554687 56.2785305,94.84375 54.6678372,94.84375 C51.4515059,94.84375 48.8348098,92.2152344 48.8348098,88.984375 C48.8348098,85.7535156 51.4515059,83.125 54.6678372,83.125 C57.8841686,83.125 60.5008647,85.7535156 60.5008647,88.984375 L60.5008647,91.9140625 C60.5008647,96.7603516 64.4259089,100.703125 69.2504059,100.703125 L104.248571,100.703125 C108.620814,100.703125 112.254206,97.4650391 112.897006,93.2507812 C112.963503,92.8148437 112.997917,92.3683594 112.997917,91.9140625 L112.997917,88.984375 C112.997917,85.7535156 115.614614,83.125 118.830945,83.125 C122.047276,83.125 124.663972,85.7535156 124.663972,88.984375 C124.663972,92.2152344 122.047276,94.84375 118.830945,94.84375 Z" id="Shape-Copy"></path>
            </g>
        </g>
    </g>
</svg>