<?xml version="1.0" encoding="UTF-8"?>
<svg width="112px" height="15px" viewBox="0 0 112 15" version="1.1" xmlns="http://www.w3.org/2000/svg" xmlns:xlink="http://www.w3.org/1999/xlink">
    <!-- Generator: Sketch 46.2 (44496) - http://www.bohemiancoding.com/sketch -->
    <title>Page 1</title>
    <desc>Created with Sketch.</desc>
    <defs></defs>
    <g id="design" stroke="none" stroke-width="1" fill="none" fill-rule="evenodd">
        <g id="Send-a-raven" transform="translate(-803.000000, -130.000000)" fill="#FFFFFF">
            <g id="Page-1" transform="translate(859.000000, 137.500000) scale(1, -1) translate(-859.000000, -137.500000) translate(803.000000, 130.000000)">
                <path d="M55.7736304,12.5347268 C53.7574279,10.7398125 50.9425969,9.69397308 48.4728066,9.03495095 C48.2898934,8.98583129 48.0095189,8.84921723 47.81552,8.86456713 C47.721292,8.84103062 47.6275259,8.81544747 47.5342217,8.78832932 C47.7254491,9.29078252 47.9697953,9.38492854 48.2686459,9.07076737 C48.8603425,8.96382978 49.0566508,8.73767467 49.6732901,8.80879584 C50.329191,8.88452199 50.9897109,9.22528964 51.5620075,9.56298732 C53.0100704,10.4179764 54.2368823,11.5712651 55.5948743,12.5577517 C55.9223628,12.7961867 56.1117427,12.4062994 55.9283675,12.1110698 C55.0193443,10.6518065 52.9989848,9.53177586 51.5984978,8.75711787 C50.1111732,7.93385187 48.5485586,7.58540927 47.1212813,8.73613968 C47.0238199,8.81442414 46.9720869,8.94029327 47.0155057,9.07383735 C47.1392954,9.45656138 47.4247509,9.51079768 47.7369967,9.609037 C48.6150725,9.8853351 49.5208624,10.0444623 50.3975525,10.3386686 C52.1606326,10.9306629 54.0331835,11.7989552 55.5717792,12.9420107 C55.8526156,13.1512809 56.0068909,12.7424621 55.7736304,12.5347268" id="Fill-1"></path>
                <path d="M56.2001324,12.6686744 C56.3401963,10.9439533 53.9908516,9.47112673 52.7247346,8.47134822 C51.8757863,7.8014645 51.0132347,7.14580433 50.1471563,6.49473242 C49.8509061,6.27220255 49.5536483,6.05059033 49.2589095,5.82576634 C49.1339605,5.73078968 48.6986541,5.33574182 48.7969003,5.49954215 C48.7722128,5.63122477 48.7475253,5.76336622 48.7228377,5.89504884 C49.4508676,5.44494204 50.8479795,6.34744976 51.370448,6.69432106 C52.1382801,7.20361622 52.8355765,7.80284097 53.4532683,8.46033643 C54.6841173,9.77165675 55.3869558,11.2233774 56.2384232,12.7342863 C56.3925943,13.0068281 57.1211279,13.1756755 56.9825755,12.7003333 C56.3764718,10.6227761 54.7153546,8.59201905 53.0245116,7.13479255 C52.0984778,6.3368968 49.5904276,4.31852797 48.1263067,5.23296513 C47.9776778,5.32564768 47.9701204,5.49220096 48.0522442,5.62847182 C48.2174994,5.90284886 48.5721935,6.10335515 48.829649,6.29835555 C49.5375258,6.83426252 50.2544714,7.36007536 50.9638597,7.89414704 C52.6088544,9.13205545 55.1773638,10.6071761 55.7038629,12.581039 C55.7512227,12.7604393 56.1769564,12.9513103 56.2001324,12.6686744" id="Fill-3"></path>
                <path d="M55.8265875,12.849333 C55.3965545,9.73842196 53.1639175,7.23266141 52.1413618,4.32156423 C52.0441626,4.04372786 51.9395998,3.75161907 51.9008183,3.45951028 C51.8743094,3.30679543 51.8640004,3.15312908 51.8689094,2.99851124 C51.8664549,2.65977922 51.9302726,2.68309084 52.0608534,3.06939757 C52.7942658,3.71784102 53.2704439,4.89816985 53.6469682,5.76736 C54.1098919,6.83493674 54.4437074,7.95484567 54.6930873,9.08664828 C54.9243037,10.1313892 54.9463944,11.2360742 55.2718646,12.252746 C55.3563003,12.5148827 55.912005,12.8103217 55.9684591,12.3835765 C56.103458,11.3559625 55.7750424,10.1547008 55.5516806,9.15039841 C55.2988644,8.00860511 54.9522853,6.88917192 54.4947616,5.80875001 C53.9920746,4.62128497 53.0191004,2.13788454 51.415313,2.00134509 C51.2881685,1.9904029 51.1453151,2.04606532 51.1055518,2.17404132 C50.6617734,3.60366169 51.7206561,5.30303072 52.3652146,6.52284657 C53.4388244,8.55190842 54.7029054,10.5338713 55.3180097,12.753232 C55.3700456,12.9416279 55.8678235,13.1481022 55.8265875,12.849333" id="Fill-5"></path>
                <path d="M56.561324,12.9716812 C58.0252741,11.9163002 59.7608043,11.0766175 61.4151831,10.4813929 C62.2884812,10.1676032 63.1802228,9.92930794 64.0765752,9.71206893 C64.2969747,9.65865792 64.8867045,9.63554739 64.9858381,9.32997479 C65.0407074,9.15947042 64.926819,8.93196006 64.80417,8.83335512 C63.4610246,7.75126863 62.0676207,7.80313894 60.5861494,8.5298368 C59.7211508,8.95404346 58.9031831,9.53951029 58.1064254,10.1044344 C57.3931244,10.6097847 56.4769452,11.1654646 56.0379907,11.9953895 C55.8724606,12.3081521 56.284211,12.7713899 56.5728512,12.5921549 C58.695233,11.2733138 61.7697588,7.30395143 64.4090187,9.36592451 C64.3486164,9.20055581 64.288214,9.03518711 64.2273506,8.86981841 C64.2877529,8.6715814 63.9677588,8.84773501 63.8077617,8.8903611 C63.4116883,8.99512885 63.016076,9.09886946 62.6232301,9.21596283 C61.6789247,9.49585706 60.7433799,9.82967586 59.8419555,10.253369 C58.5827279,10.844485 57.2026956,11.5336925 56.1481904,12.5104976 C55.9513064,12.6923005 56.3662844,13.1123986 56.561324,12.9716812" id="Fill-7"></path>
                <path d="M56.2849859,12.6720469 C56.8664564,10.698574 59.3309037,9.27387439 60.9851218,8.02904021 C61.6844987,7.50366787 62.3889145,6.98471931 63.0887953,6.45980581 C63.3760035,6.24460963 63.7947227,6.02482505 63.9781328,5.72199034 C64.0592565,5.58755009 63.8970091,5.35262377 63.7801103,5.27966813 C62.3355038,4.3789643 60.2771789,5.87203118 59.2492761,6.68096692 C57.4353301,8.10841961 55.5901438,10.2727701 55.0066578,12.4325322 C54.9295651,12.7174721 55.5432835,13.2244908 55.7468486,12.8895373 C56.660372,11.3840817 57.3521909,9.8680728 58.6012943,8.54064733 C59.2704388,7.82898576 60.0217148,7.17880882 60.8616726,6.63645939 C61.3292676,6.33454237 62.7708509,5.39621361 63.349802,5.75410918 C63.2837945,5.60682139 63.2177871,5.4595336 63.1517796,5.31224581 C62.9774392,5.60452718 62.1062412,6.09410996 61.759576,6.35473135 C60.996207,6.93011729 60.2353574,7.5096328 59.4835775,8.09832512 C58.1473039,9.14494022 55.6551435,10.6687494 55.7886701,12.4802516 C55.8007631,12.6468107 56.2083971,12.9322094 56.2849859,12.6720469" id="Fill-9"></path>
                <path d="M56.6878457,12.8914773 C57.2989812,10.776923 58.4840058,8.86726358 59.5273959,6.93478528 C60.205673,5.67879323 61.3559016,3.91127679 60.8932617,2.42234148 C60.8119077,2.15944836 60.5404008,1.97832309 60.2605625,2.00209281 C58.8030509,2.12617075 57.8341536,4.74131544 57.3906271,5.83044405 C56.6393274,7.67307281 55.809124,10.159861 56.0389737,12.1598453 C56.0669085,12.4075258 56.590809,12.83443 56.7339137,12.4465081 C57.0480579,11.591749 57.0465877,10.619092 57.2284091,9.72725208 C57.4009188,8.87819766 57.6185164,8.03865112 57.8978646,7.21621877 C58.1747624,6.40091735 58.50802,5.60082855 58.9177307,4.8387713 C59.2269741,4.26306866 59.9018206,2.85209803 60.6869361,2.78031347 C60.4757096,2.64007212 60.2649733,2.50030616 60.0537468,2.36006481 C60.5276586,3.8504263 59.0177079,5.95975133 58.3605045,7.21812035 C57.4553182,8.95188379 56.4383927,10.7274819 56.1801181,12.6823038 C56.1526734,12.8910019 56.6128628,13.1505673 56.6878457,12.8914773" id="Fill-11"></path>
                <path d="M56.1008352,11.8856459 C56.413576,9.7369704 56.6713867,7.56001688 56.8506113,5.39127312 C56.980519,3.82047322 57.2403345,1.74842213 56.4753223,0.320380762 C56.3778915,0.139310042 56.0366832,-0.158065549 55.8678834,0.102366142 C54.968553,1.49118313 54.9737654,3.31329276 55.0126575,4.96710241 C55.0583658,6.92421692 55.1036731,9.18509238 55.5864166,11.0637581 C55.6505686,11.3118752 56.1224865,11.6005849 56.1553644,11.189641 C56.2920882,9.47060944 55.8257837,7.59011932 55.7451927,5.85922918 C55.6662056,4.16072198 55.5423122,2.11330016 56.4725156,0.670663666 C56.270036,0.597688061 56.0675564,0.525168553 55.8650767,0.452649046 C56.6144519,1.846027 56.2672294,4.09093905 56.1405292,5.62388286 C55.9741351,7.6297998 55.631724,9.65259235 55.6581866,11.6717361 C55.6605923,11.8696825 56.0599383,12.1647776 56.1008352,11.8856459" id="Fill-13"></path>
                <path d="M59.2748659,13.7616306 C61.4890197,14.0498744 63.7644916,13.910362 65.9887055,13.9183517 C68.2162726,13.926956 70.4438398,13.9294143 72.6718861,13.9318727 C77.0470196,13.937404 81.4216742,13.9441646 85.7968077,13.9447791 C90.1714623,13.9447791 94.5456377,13.9453937 98.9198132,13.9453937 C103.223569,13.9460083 107.552714,14.1193234 111.852158,13.8452152 C112.193239,13.8237044 111.868446,13.168549 111.636587,13.1537987 C107.18768,12.8778468 102.708115,13.0573077 98.2548964,13.0579223 C93.8807209,13.0579223 89.5065454,13.0585369 85.132849,13.0591515 C80.7596316,13.0591515 76.3864142,13.0665266 72.0131968,13.0720579 C69.7870668,13.0745163 67.5614158,13.0788185 65.3352858,13.0868082 C63.2768221,13.0947979 61.1623099,12.9589729 59.1134271,13.245373 C58.845161,13.2828631 59.1163014,13.7407345 59.2748659,13.7616306" id="Fill-15"></path>
                <path d="M0.274704778,13.7616306 C2.48885651,14.0498744 4.76432616,13.910362 6.98853786,13.9183517 C9.21658194,13.926956 11.444147,13.9294143 13.672191,13.9318727 C18.0473204,13.937404 22.4219707,13.9441646 26.7971,13.9447791 C31.1712712,13.9447791 35.5454425,13.9453937 39.9200927,13.9453937 C44.2233651,13.9460083 48.552506,14.1193234 52.8519461,13.8452152 C53.193506,13.8237044 52.8682336,13.168549 52.6363753,13.1537987 C48.1879518,12.8778468 43.7079114,13.0573077 39.2546975,13.0579223 C34.8805263,13.0579223 30.506355,13.0585369 26.1326628,13.0591515 C21.7594497,13.0591515 17.3862366,13.0665266 13.0130234,13.0720579 C10.7868955,13.0745163 8.56124668,13.0788185 6.33559784,13.0868082 C4.27665709,13.0947979 2.16214697,12.9589729 0.113745241,13.245373 C-0.154999701,13.2828631 0.116140472,13.7407345 0.274704778,13.7616306" id="Fill-17"></path>
                <g id="Group-26" transform="translate(0.000000, 11.000000)">
                    <path d="M2.6716751,0.00544508741 C2.20637038,0.185445087 1.85835321,0.631222865 1.46034463,0.916556199 C1.04166652,1.21744509 0.587417588,1.46633398 0.112499133,1.68277842 C-0.174951511,1.81344509 0.156241623,2.1925562 0.352361794,2.23344509 C1.30652488,2.43344509 2.02274806,2.8205562 2.63081673,3.53744509 C2.91346051,3.87077842 3.47490257,3.6725562 3.15764935,3.26633398 C2.47603561,2.39522287 1.41756351,1.80144509 0.264876816,1.65566731 C0.373992695,1.8445562 0.482627889,2.03300064 0.591743768,2.22233398 C1.38824162,1.78500064 2.6788854,1.01522287 2.82789827,0.104111754 C2.83943476,0.0361117541 2.73176094,-0.0176660237 2.6716751,0.00544508741" id="Fill-19"></path>
                    <path d="M4.72794714,0.496331795 C4.33282267,1.07410957 3.77955229,1.48433179 3.05708018,1.65322068 C2.68887418,1.73944291 2.98738061,2.16922068 3.22483984,2.22388735 C3.68389563,2.32966513 4.11218748,2.49277624 4.48471967,2.76744291 C4.81110593,3.00788735 5.01347503,3.35810957 5.34899435,3.57766513 C5.45522611,3.64744291 5.77199864,3.72788735 5.75036774,3.50388735 C5.65711452,2.54877624 4.100651,1.84877624 3.22435915,1.66477624 C3.28011881,1.85544291 3.33587847,2.04522068 3.39211881,2.23588735 C4.19871109,1.97499846 4.80197289,1.47722068 5.1014407,0.730554017 C5.1629686,0.578109573 4.83658233,0.338109573 4.72794714,0.496331795" id="Fill-22"></path>
                    <path d="M108.667084,0.176682181 C109.274191,1.14068218 110.260079,1.85979329 111.332011,2.34379329 C111.283942,2.18068218 111.236354,2.01712663 111.188285,1.85357107 C110.513882,2.36379329 109.725556,2.8669044 109.206895,3.51712663 C109.045865,3.7189044 109.417916,4.02023774 109.632303,3.9109044 C110.403324,3.51801551 111.054174,2.87445996 111.696852,2.32468218 C111.852114,2.19223774 111.630517,1.92823774 111.49977,1.87579329 C110.47062,1.46201551 109.704406,0.848237736 108.967513,0.0780155141 C108.85359,-0.0415400414 108.533933,-0.0348733748 108.667084,0.176682181" id="Fill-24"></path>
                    <path d="M107.198396,0.532388183 C107.402688,1.07149929 107.999701,1.52661041 108.458276,1.88838818 C108.422224,1.76483263 108.386173,1.64172152 108.350121,1.51816596 C107.924233,1.88305485 107.42528,2.46127707 107.225795,2.96838818 C107.150327,3.16038818 107.500748,3.46038818 107.693984,3.32705485 C108.184765,2.98972152 108.635649,2.37149929 108.903392,1.86527707 C108.957229,1.76349929 108.849074,1.60483263 108.763512,1.54749929 C108.268405,1.21505485 107.847804,0.759499294 107.335872,0.459499294 C107.275787,0.424388183 107.168113,0.451499294 107.198396,0.532388183" id="Fill-27"></path>
                </g>
            </g>
        </g>
    </g>
</svg>