<?xml version="1.0" encoding="UTF-8"?>
<svg width="289px" height="12px" viewBox="0 0 289 12" version="1.1" xmlns="http://www.w3.org/2000/svg" xmlns:xlink="http://www.w3.org/1999/xlink">
    <!-- Generator: Sketch 46.2 (44496) - http://www.bohemiancoding.com/sketch -->
    <title>HEADING</title>
    <desc>Created with Sketch.</desc>
    <defs></defs>
    <g id="design" stroke="none" stroke-width="1" fill="none" fill-rule="evenodd">
        <g id="Send-a-raven" transform="translate(-716.000000, -205.000000)" fill="#FFFFFF">
            <g id="house" transform="translate(630.000000, 204.000000)">
                <g id="HEADING" transform="translate(86.000000, 0.000000)">
                    <text id="your-HOUSE" font-family="GameofThrones, Game of Thrones" font-size="12" font-weight="normal" letter-spacing="0.214285702">
                        <tspan x="95.3592356" y="13">your HOUSE</tspan>
                    </text>
                    <g id="Page-1" transform="translate(0.000000, 1.000000)">
                        <g id="Group-6">
                            <path d="M9.62689857,5.94329321 C8.61406371,5.98722952 7.50924097,6.47627063 6.72564957,7.14030807 C6.06164239,7.70299242 5.36737604,8.75621571 5.62760489,9.68387101 C5.85103858,10.4802167 6.50294209,10.9595219 7.30517315,10.8981109 C8.31679764,10.8204734 8.90624623,9.7944607 8.25264821,8.91498556 C8.14928289,8.77593712 7.86968818,8.79965274 7.9757163,9.01658828 C8.45671603,9.99816542 7.10570471,10.932561 6.36544443,10.2163492 C5.96505513,9.82866113 6.00862833,9.30616851 6.18558394,8.8288604 C6.76583374,7.26313003 8.30009458,6.67198693 9.71186631,6.16222586 C9.83750238,6.11679172 9.72760108,5.93879973 9.62689857,5.94329321" id="Fill-18"></path>
                            <path d="M8.11241512,1.25039586 C8.06593704,0.583862045 7.39829876,0.218391817 6.80061968,0.292534343 C5.97514958,0.395135616 5.52126207,1.18374248 5.74130674,1.9890751 C6.19519425,3.65016724 8.16010357,5.05038754 9.74011627,5.33397646 C9.95120422,5.37192145 9.84735476,5.08284049 9.74060042,5.02367626 C8.7764223,4.49069884 7.76818683,4.16492108 6.98822652,3.32364056 C6.64883969,2.95742142 6.26297479,2.45215384 6.14944239,1.94613734 C5.92988187,0.968804048 7.40628718,-0.0756819042 7.86211128,1.2002186 C7.89212838,1.28434665 8.12427671,1.42064907 8.11241512,1.25039586" id="Fill-15"></path>
                            <path d="M4.19077857,2.77820621 C4.56962335,3.40829286 5.00390292,4.00942148 5.50015327,4.54714202 C5.92547613,5.00847329 6.43116735,5.54494564 7.02327874,5.76287973 C7.24380755,5.84401213 7.24308133,5.57365403 7.12107637,5.46331397 C6.62555224,5.01421497 6.08500247,4.67021362 5.6233686,4.16943953 C5.19247805,3.70236658 4.81000217,3.19235587 4.41009701,2.69782273 C4.32755,2.59597037 4.0905602,2.61169757 4.19077857,2.77820621" id="Fill-21"></path>
                            <path d="M7.03465619,5.46084256 C5.9375798,5.68327013 4.37233357,6.63064685 4.21813285,7.8970611 C4.19997735,8.04709362 4.45875376,8.22608416 4.56792883,8.09502414 C4.95161508,7.6331936 5.14914693,7.08798391 5.60279237,6.66659474 C6.07338295,6.22972801 6.62095285,5.96860652 7.1898252,5.69974625 C7.32344968,5.63683744 7.13366418,5.44087151 7.03465619,5.46084256" id="Fill-23"></path>
                            <path d="M2.95864946,4.05076156 C3.34645096,4.71305153 3.86811901,5.48268589 4.61757808,5.72283778 C4.78969222,5.7780078 4.78872393,5.57954549 4.69334703,5.49092395 C4.43336026,5.24877496 4.13439968,5.05730251 3.88700073,4.79967596 C3.63766519,4.53980266 3.42343028,4.24398147 3.1970917,3.96338821 C3.10752457,3.85229924 2.85189512,3.86852572 2.95864946,4.05076156" id="Fill-25"></path>
                            <path d="M4.52764783,5.3930658 C4.16768477,5.49941165 3.82805587,5.63746154 3.54168311,5.89309098 C3.27031889,6.13573925 2.97862051,6.5334128 2.99847053,6.92085118 C3.00500651,7.04966446 3.19890725,7.21966803 3.3092927,7.09659643 C3.43420254,6.95754799 3.48189099,6.76707409 3.57194227,6.60356111 C3.65110026,6.45951991 3.74744545,6.32621315 3.86194614,6.21013141 C4.09820972,5.97072844 4.4116947,5.81370606 4.70920283,5.67216124 C4.85904623,5.60101437 4.64844243,5.35736755 4.52764783,5.3930658" id="Fill-27"></path>
                            <path d="M3.15192082,5.48498256 C2.50122768,5.18117295 1.7500741,4.93527939 1.02748517,4.99194725 C0.756605101,5.01341613 -0.0514357145,5.13548918 0.0482985024,5.57635012 C0.128666852,5.93033699 0.74643802,6.13828556 1.04418823,6.17872694 C1.77040826,6.27758364 2.52809782,6.09310106 3.17951718,5.76682402 C3.36058804,5.67620537 3.10423237,5.40634655 2.96552435,5.43755132 C2.36397209,5.57335446 0.858517978,6.16724358 0.405356682,5.47649487 C0.423754256,5.54589427 0.441909756,5.61504403 0.46030733,5.68469307 C0.597078769,5.27678436 1.6002307,5.36041313 1.86772174,5.39735958 C2.30587449,5.45852092 2.71812539,5.62602811 3.15167875,5.70616195 C3.29692275,5.73287323 3.2356782,5.52417575 3.15192082,5.48498256" id="Fill-29"></path>
                        </g>
                        <g id="Group-31" transform="translate(12.000000, 5.000000)">
                            <path d="M22.9830298,0.310819367 C30.2788107,0.313361137 37.5745917,0.318081567 44.8703727,0.321531113 C49.2408308,0.323528218 53.6112888,0.322438888 57.9817469,0.322983553 C58.2989127,0.322983553 58.1004423,0.00017875111 57.8652271,0.00017875111 C57.4854501,0.00017875111 57.6839204,0.322983553 57.9191357,0.322983553 C58.5638622,0.322983553 59.2078636,0.326251543 59.8521067,0.308277597 C60.1692725,0.299381402 59.9164101,-0.0541061958 59.6533945,0.0283197771 C59.7314773,0.0185158068 59.7416304,0.0145215966 59.6843375,0.0167002567 C59.3993234,0.0167002567 59.5777292,0.306462047 59.7890119,0.306462047 C59.8322838,0.309185372 59.8356682,0.307188267 59.7991651,0.300470732 C60.098442,0.373274289 60.0225349,0.0225100169 59.7462235,0.0148847066 C59.0983543,-0.00272612899 58.4507269,0.00017875111 57.8026159,0.00017875111 C57.4854501,0.00017875111 57.6839204,0.322983553 57.9191357,0.322983553 C58.2989127,0.322983553 58.1004423,0.00017875111 57.8652271,0.00017875111 C42.9784979,0.00181274617 28.0917686,0.0105273865 13.2052811,0.0156109267 C8.84135011,0.0172449217 4.47161727,-0.0167058645 0.108653218,0.0551899181 C-0.101662536,0.0586394632 0.0317791838,0.265430616 0.185527252,0.267972386 C7.77961817,0.3917929 15.3872466,0.308277597 22.9830298,0.310819367 Z" id="Fill-32"></path>
                        </g>
                    </g>
                    <g id="Page-1-Copy" transform="translate(253.000000, 6.500000) scale(-1, 1) translate(-253.000000, -6.500000) translate(217.000000, 1.000000)">
                        <g id="Group-6">
                            <path d="M9.62689857,5.94329321 C8.61406371,5.98722952 7.50924097,6.47627063 6.72564957,7.14030807 C6.06164239,7.70299242 5.36737604,8.75621571 5.62760489,9.68387101 C5.85103858,10.4802167 6.50294209,10.9595219 7.30517315,10.8981109 C8.31679764,10.8204734 8.90624623,9.7944607 8.25264821,8.91498556 C8.14928289,8.77593712 7.86968818,8.79965274 7.9757163,9.01658828 C8.45671603,9.99816542 7.10570471,10.932561 6.36544443,10.2163492 C5.96505513,9.82866113 6.00862833,9.30616851 6.18558394,8.8288604 C6.76583374,7.26313003 8.30009458,6.67198693 9.71186631,6.16222586 C9.83750238,6.11679172 9.72760108,5.93879973 9.62689857,5.94329321" id="Fill-18"></path>
                            <path d="M8.11241512,1.25039586 C8.06593704,0.583862045 7.39829876,0.218391817 6.80061968,0.292534343 C5.97514958,0.395135616 5.52126207,1.18374248 5.74130674,1.9890751 C6.19519425,3.65016724 8.16010357,5.05038754 9.74011627,5.33397646 C9.95120422,5.37192145 9.84735476,5.08284049 9.74060042,5.02367626 C8.7764223,4.49069884 7.76818683,4.16492108 6.98822652,3.32364056 C6.64883969,2.95742142 6.26297479,2.45215384 6.14944239,1.94613734 C5.92988187,0.968804048 7.40628718,-0.0756819042 7.86211128,1.2002186 C7.89212838,1.28434665 8.12427671,1.42064907 8.11241512,1.25039586" id="Fill-15"></path>
                            <path d="M4.19077857,2.77820621 C4.56962335,3.40829286 5.00390292,4.00942148 5.50015327,4.54714202 C5.92547613,5.00847329 6.43116735,5.54494564 7.02327874,5.76287973 C7.24380755,5.84401213 7.24308133,5.57365403 7.12107637,5.46331397 C6.62555224,5.01421497 6.08500247,4.67021362 5.6233686,4.16943953 C5.19247805,3.70236658 4.81000217,3.19235587 4.41009701,2.69782273 C4.32755,2.59597037 4.0905602,2.61169757 4.19077857,2.77820621" id="Fill-21"></path>
                            <path d="M7.03465619,5.46084256 C5.9375798,5.68327013 4.37233357,6.63064685 4.21813285,7.8970611 C4.19997735,8.04709362 4.45875376,8.22608416 4.56792883,8.09502414 C4.95161508,7.6331936 5.14914693,7.08798391 5.60279237,6.66659474 C6.07338295,6.22972801 6.62095285,5.96860652 7.1898252,5.69974625 C7.32344968,5.63683744 7.13366418,5.44087151 7.03465619,5.46084256" id="Fill-23"></path>
                            <path d="M2.95864946,4.05076156 C3.34645096,4.71305153 3.86811901,5.48268589 4.61757808,5.72283778 C4.78969222,5.7780078 4.78872393,5.57954549 4.69334703,5.49092395 C4.43336026,5.24877496 4.13439968,5.05730251 3.88700073,4.79967596 C3.63766519,4.53980266 3.42343028,4.24398147 3.1970917,3.96338821 C3.10752457,3.85229924 2.85189512,3.86852572 2.95864946,4.05076156" id="Fill-25"></path>
                            <path d="M4.52764783,5.3930658 C4.16768477,5.49941165 3.82805587,5.63746154 3.54168311,5.89309098 C3.27031889,6.13573925 2.97862051,6.5334128 2.99847053,6.92085118 C3.00500651,7.04966446 3.19890725,7.21966803 3.3092927,7.09659643 C3.43420254,6.95754799 3.48189099,6.76707409 3.57194227,6.60356111 C3.65110026,6.45951991 3.74744545,6.32621315 3.86194614,6.21013141 C4.09820972,5.97072844 4.4116947,5.81370606 4.70920283,5.67216124 C4.85904623,5.60101437 4.64844243,5.35736755 4.52764783,5.3930658" id="Fill-27"></path>
                            <path d="M3.15192082,5.48498256 C2.50122768,5.18117295 1.7500741,4.93527939 1.02748517,4.99194725 C0.756605101,5.01341613 -0.0514357145,5.13548918 0.0482985024,5.57635012 C0.128666852,5.93033699 0.74643802,6.13828556 1.04418823,6.17872694 C1.77040826,6.27758364 2.52809782,6.09310106 3.17951718,5.76682402 C3.36058804,5.67620537 3.10423237,5.40634655 2.96552435,5.43755132 C2.36397209,5.57335446 0.858517978,6.16724358 0.405356682,5.47649487 C0.423754256,5.54589427 0.441909756,5.61504403 0.46030733,5.68469307 C0.597078769,5.27678436 1.6002307,5.36041313 1.86772174,5.39735958 C2.30587449,5.45852092 2.71812539,5.62602811 3.15167875,5.70616195 C3.29692275,5.73287323 3.2356782,5.52417575 3.15192082,5.48498256" id="Fill-29"></path>
                        </g>
                        <g id="Group-31" transform="translate(12.000000, 5.000000)">
                            <path d="M22.9830298,0.310819367 C30.2788107,0.313361137 37.5745917,0.318081567 44.8703727,0.321531113 C49.2408308,0.323528218 53.6112888,0.322438888 57.9817469,0.322983553 C58.2989127,0.322983553 58.1004423,0.00017875111 57.8652271,0.00017875111 C57.4854501,0.00017875111 57.6839204,0.322983553 57.9191357,0.322983553 C58.5638622,0.322983553 59.2078636,0.326251543 59.8521067,0.308277597 C60.1692725,0.299381402 59.9164101,-0.0541061958 59.6533945,0.0283197771 C59.7314773,0.0185158068 59.7416304,0.0145215966 59.6843375,0.0167002567 C59.3993234,0.0167002567 59.5777292,0.306462047 59.7890119,0.306462047 C59.8322838,0.309185372 59.8356682,0.307188267 59.7991651,0.300470732 C60.098442,0.373274289 60.0225349,0.0225100169 59.7462235,0.0148847066 C59.0983543,-0.00272612899 58.4507269,0.00017875111 57.8026159,0.00017875111 C57.4854501,0.00017875111 57.6839204,0.322983553 57.9191357,0.322983553 C58.2989127,0.322983553 58.1004423,0.00017875111 57.8652271,0.00017875111 C42.9784979,0.00181274617 28.0917686,0.0105273865 13.2052811,0.0156109267 C8.84135011,0.0172449217 4.47161727,-0.0167058645 0.108653218,0.0551899181 C-0.101662536,0.0586394632 0.0317791838,0.265430616 0.185527252,0.267972386 C7.77961817,0.3917929 15.3872466,0.308277597 22.9830298,0.310819367 Z" id="Fill-32"></path>
                        </g>
                    </g>
                </g>
            </g>
        </g>
    </g>
</svg>