<?xml version="1.0" encoding="UTF-8"?>
<svg width="24px" height="24px" viewBox="0 0 24 24" version="1.1" xmlns="http://www.w3.org/2000/svg" xmlns:xlink="http://www.w3.org/1999/xlink">
    <!-- Generator: Sketch 46.2 (44496) - http://www.bohemiancoding.com/sketch -->
    <title>Shape</title>
    <desc>Created with Sketch.</desc>
    <defs></defs>
    <g id="design" stroke="none" stroke-width="1" fill="none" fill-rule="evenodd">
        <g id="landing-page" transform="translate(-28.000000, -275.000000)" fill-rule="nonzero" fill="#FFFFFF">
            <g id="sidebar" transform="translate(0.000000, -3.000000)">
                <g id="battles" transform="translate(28.000000, 278.000000)">
                    <path d="M22.4767293,19.8644726 L21.5122948,15.4026387 C23.0542462,13.7655283 24.000727,11.5616356 24.000727,9.14061154 C24.000727,4.10046388 19.9002632,0 14.8601155,0 C11.1412722,0 7.82050301,2.2630038 6.41964947,5.62652421 C6.4051178,5.62563356 6.39049237,5.62497729 6.37577319,5.62497729 L0.703872644,5.62497729 C0.18251362,5.62497729 -0.158699501,6.17511841 0.0749323434,6.64252273 L1.32395331,9.14056466 L0.0749323434,11.6386066 C-0.158183861,12.1049796 0.181294834,12.6562458 0.703872644,12.6562458 L6.37572631,12.6562458 C6.39044549,12.6562458 6.40502405,12.6555895 6.4196026,12.6546989 C6.84941206,13.6866354 7.4598362,14.6150219 8.20718622,15.4062014 L7.24350174,19.8644726 C6.36438223,20.1189175 5.71950396,20.930582 5.71950396,21.8906101 L5.71950396,23.2968544 C5.71950396,23.6851783 6.03432568,24 6.42264956,24 L23.2975814,24 C23.6859053,24 24.000727,23.6851783 24.000727,23.2968544 L24.000727,21.8906101 C24.000727,20.930582 23.3558488,20.1189175 22.4767293,19.8644726 Z M5.94118233,11.2499546 L1.84156223,11.2499546 L2.54470783,9.84371026 C2.97789239,9.84371026 6.19000212,9.84371026 6.64432793,9.84371026 L5.94118233,11.2499546 Z M2.54466095,8.43746594 L1.84151535,7.03122162 L5.94113545,7.03122162 L6.64428105,8.43746594 C6.18990837,8.43746594 2.97798614,8.43746594 2.54466095,8.43746594 Z M7.45257036,11.3716925 L8.21656149,9.84371026 L8.57127501,9.84371026 C8.92219154,13.0033653 11.6084421,15.4686876 14.8601155,15.4686876 C18.3494521,15.4686876 21.1882384,12.6299013 21.1882384,9.14056466 C21.1882384,5.65122806 18.3494521,2.81248865 14.8601155,2.81248865 C11.6084421,2.81248865 8.92219154,5.27781087 8.57127501,8.43746594 L8.21656149,8.43746594 L7.45257036,6.90948368 C8.42947398,3.65907595 11.4464842,1.40624432 14.8601155,1.40624432 C19.1248342,1.40624432 22.5944827,4.87589285 22.5944827,9.14061154 C22.5944827,13.4053302 19.1248342,16.8749788 14.8601155,16.8749788 C11.4465311,16.8749788 8.42947398,14.6221003 7.45257036,11.3716925 Z M14.8601155,8.43746594 L12.8716666,8.43746594 C13.1619251,7.61914509 13.943448,7.03122162 14.8601155,7.03122162 C16.0232121,7.03122162 16.9695054,7.97746809 16.9695054,9.14061154 C16.9695054,10.3037081 16.023259,11.2500015 14.8601155,11.2500015 C13.9434949,11.2500015 13.1619251,10.662078 12.8716666,9.84375714 L14.8601155,9.84375714 C15.2484394,9.84375714 15.5632611,9.52893542 15.5632611,9.14061154 C15.5632611,8.75228766 15.2484394,8.43746594 14.8601155,8.43746594 Z M14.8601155,12.6562458 C16.798641,12.6562458 18.3757498,11.0791371 18.3757498,9.14061154 C18.3757498,7.202086 16.798641,5.62497729 14.8601155,5.62497729 C13.162347,5.62497729 11.7418991,6.83471586 11.4152177,8.43746594 L9.98867591,8.43746594 C10.3309203,6.05548991 12.3848555,4.21873297 14.8601155,4.21873297 C17.5740231,4.21873297 19.7819941,6.42670391 19.7819941,9.14061154 C19.7819941,11.8545192 17.5740231,14.0624901 14.8601155,14.0624901 C12.3849492,14.0624901 10.3309203,12.2257332 9.98867591,9.84375714 L11.4152177,9.84375714 C11.7418523,11.4464603 13.162347,12.6562458 14.8601155,12.6562458 Z M21.0199991,19.7812202 L8.70023191,19.7812202 L9.41439346,16.477514 C10.952501,17.6183912 12.8479941,18.2812231 14.8601155,18.2812231 C16.8989096,18.2812231 18.7837617,17.6100472 20.3058375,16.4773734 L21.0199991,19.7812202 Z M22.5944827,22.5937088 L7.12574829,22.5937088 L7.12574829,21.8905632 C7.12574829,21.5028487 7.4411794,21.1874176 7.82889389,21.1874176 L21.891384,21.1874176 C22.2790985,21.1874176 22.5945296,21.5028487 22.5945296,21.8905632 L22.5945296,22.5937088 L22.5944827,22.5937088 Z" id="Shape"></path>
                </g>
            </g>
        </g>
    </g>
</svg>