<?xml version="1.0" encoding="UTF-8"?>
<svg width="25px" height="24px" viewBox="0 0 25 24" version="1.1" xmlns="http://www.w3.org/2000/svg" xmlns:xlink="http://www.w3.org/1999/xlink">
    <!-- Generator: Sketch 46.2 (44496) - http://www.bohemiancoding.com/sketch -->
    <title>Group 2</title>
    <desc>Created with Sketch.</desc>
    <defs></defs>
    <g id="design" stroke="none" stroke-width="1" fill="none" fill-rule="evenodd">
        <g id="landing-page" transform="translate(-28.000000, -197.000000)" fill-rule="nonzero" fill="#FFFFFF">
            <g id="sidebar" transform="translate(0.000000, -3.000000)">
                <g id="houses" transform="translate(28.128571, 200.000000)">
                    <g id="Group-2">
                        <path d="M21.8845982,0 C21.3447388,0 20.8518482,0.20409375 20.4783482,0.538828125 C20.1048951,0.20409375 19.6119576,0 19.0720982,0 L5.00959821,0 C4.46973884,0 3.97684821,0.20409375 3.60334821,0.538828125 C3.22984821,0.20409375 2.73695759,0 2.19709821,0 C1.03145759,0 0.0408482143,0.942 0.0408482143,2.109375 C0.0408482143,3.27525 1.02972321,4.21875 2.19709821,4.21875 C2.73695759,4.21875 3.22984821,4.01465625 3.60334821,3.67992187 C3.80631696,3.86184375 4.04458259,4.00490625 4.30647321,4.0978125 L4.30647321,17.671875 C4.30647321,17.9188594 4.43603571,18.1477031 4.64781696,18.2747813 L5.71272321,18.9137812 L5.71272321,20.484375 C5.71272321,20.8726875 6.02753571,21.1875 6.41584821,21.1875 C6.80416071,21.1875 7.11897321,20.8726875 7.11897321,20.484375 L7.11897321,19.7575781 L8.52522321,20.601375 L8.52522321,21.890625 C8.52522321,22.2789375 8.84003571,22.59375 9.22834821,22.59375 C9.61666071,22.59375 9.93147321,22.2789375 9.93147321,21.890625 L9.93147321,21.4451719 L11.3377232,22.2889687 L11.3377232,23.296875 C11.3377232,23.6851875 11.6525357,24 12.0408482,24 C12.4291607,24 12.7439732,23.6851875 12.7439732,23.296875 L12.7439732,22.2884531 L14.1502232,21.44475 L14.1502232,21.890625 C14.1502232,22.2789375 14.4650357,22.59375 14.8533482,22.59375 C15.2416607,22.59375 15.5564732,22.2789375 15.5564732,21.890625 L15.5564732,20.6010938 L16.9627232,19.7573906 L16.9627232,20.484375 C16.9627232,20.8726875 17.2775357,21.1875 17.6658482,21.1875 C18.0541607,21.1875 18.3689732,20.8726875 18.3689732,20.484375 L18.3689732,18.9136875 L19.4338326,18.2748281 C19.6456138,18.14775 19.7752232,17.9188594 19.7752232,17.671875 L19.7752232,4.0978125 C20.0371138,4.00490625 20.2753795,3.86184375 20.4783482,3.67992187 C20.8518482,4.01465625 21.3447388,4.21875 21.8845982,4.21875 C23.0502857,4.21875 24.0408482,3.27675 24.0408482,2.109375 C24.0408482,0.94340625 23.0518795,0 21.8845982,0 Z M2.19709821,2.8125 C1.79758259,2.8125 1.44709821,2.48395313 1.44709821,2.109375 C1.44709821,1.73479688 1.79758259,1.40625 2.19709821,1.40625 C2.58480134,1.40625 2.90022321,1.72167187 2.90022321,2.109375 C2.90022321,2.49707812 2.58480134,2.8125 2.19709821,2.8125 Z M18.3689732,17.2737656 L12.0404263,21.0706406 L5.71272321,17.2737656 L5.71272321,4.21875 L18.3689732,4.21875 L18.3689732,17.2737656 Z M19.0720982,2.8125 L5.00959821,2.8125 C4.62189509,2.8125 4.30647321,2.49707812 4.30647321,2.109375 C4.30647321,1.72167187 4.62189509,1.40625 5.00959821,1.40625 L19.0720982,1.40625 C19.4598013,1.40625 19.7752232,1.72167187 19.7752232,2.109375 C19.7752232,2.49707812 19.4598013,2.8125 19.0720982,2.8125 Z M21.8845982,2.8125 C21.4968951,2.8125 21.1814732,2.49707812 21.1814732,2.109375 C21.1814732,1.72167187 21.4968951,1.40625 21.8845982,1.40625 C22.2841138,1.40625 22.6345982,1.73479688 22.6345982,2.109375 C22.6345982,2.48395313 22.2841138,2.8125 21.8845982,2.8125 Z" id="Shape"></path>
                        <path d="M15.9451607,8.60545313 L15.0193326,9.06834375 L15.4822232,8.14251562 C15.7154263,7.67625 15.3759576,7.125 14.8533482,7.125 L9.22834821,7.125 C8.70700446,7.125 8.36575446,7.675125 8.59942634,8.1425625 L9.06231696,9.06839062 L8.13648884,8.6055 C7.66844196,8.37145313 7.11897321,8.713875 7.11897321,9.234375 L7.11897321,14.859375 C7.11897321,15.3808125 7.66905134,15.7219219 8.13653571,15.4882969 L9.06236384,15.0254062 L8.59947321,15.9512344 C8.36627009,16.4175 8.70573884,16.96875 9.22834821,16.96875 L14.8533482,16.96875 C15.374692,16.96875 15.715942,16.418625 15.4822701,15.9511875 L15.0193795,15.0253594 L15.9452076,15.48825 C16.4114732,15.7214531 16.9627232,15.3819844 16.9627232,14.859375 L16.9627232,9.234375 C16.9627232,8.7129375 16.4125982,8.37178125 15.9451607,8.60545313 Z M15.5564732,13.7217188 L13.7615357,12.82425 C13.4909263,12.6889219 13.1639263,12.7419375 12.949942,12.9559688 C12.7359576,13.1699531 12.6828951,13.4969063 12.8182232,13.7675625 L13.7156451,15.5625 L10.3660045,15.5625 L11.2634732,13.7675625 C11.3988013,13.4969062 11.3457388,13.1699531 11.1317545,12.9559687 C10.9177232,12.7419375 10.5907701,12.6889219 10.3201607,12.82425 L8.52522321,13.7216719 L8.52522321,10.3720781 L10.3201607,11.2695469 C10.590817,11.404875 10.917817,11.3518125 11.1317545,11.1378281 C11.3457388,10.9238437 11.3988013,10.5968906 11.2634732,10.3262344 L10.3660513,8.53125 L13.715692,8.53125 L12.8182232,10.3261875 C12.6828951,10.5968437 12.7359576,10.9237969 12.949942,11.1377812 C13.1639263,11.3517656 13.4908326,11.4047812 13.7615357,11.2695 L15.5564732,10.3720781 L15.5564732,13.7217188 Z" id="Shape"></path>
                    </g>
                </g>
            </g>
        </g>
    </g>
</svg>