<?xml version="1.0" encoding="UTF-8"?>
<svg width="21px" height="24px" viewBox="0 0 21 24" version="1.1" xmlns="http://www.w3.org/2000/svg" xmlns:xlink="http://www.w3.org/1999/xlink">
    <!-- Generator: Sketch 46.2 (44496) - http://www.bohemiancoding.com/sketch -->
    <title>Shape</title>
    <desc>Created with Sketch.</desc>
    <defs></defs>
    <g id="design" stroke="none" stroke-width="1" fill="none" fill-rule="evenodd">
        <g id="landing-page" transform="translate(-28.000000, -352.000000)" fill-rule="nonzero" fill="#FFFFFF">
            <g id="sidebar" transform="translate(0.000000, -3.000000)">
                <g id="lords" transform="translate(28.000000, 355.000000)">
                    <path d="M20.7943307,22.7997188 C20.0349638,22.036875 19.5994,20.9815781 19.5994,19.9043437 L19.5994,16.590375 C20.4354362,16.1032969 20.9993266,15.1949531 20.9993266,14.15625 C20.9993266,12.6054375 19.7433125,11.34375 18.1994734,11.34375 C17.8165468,11.34375 17.4513527,11.4215625 17.1186368,11.562 L17.8658709,6.99848437 C18.8495993,6.82378125 19.5994,5.95945312 19.5994,4.92192187 C19.5994,3.7588125 18.6573894,2.81254687 17.4995101,2.81254687 C16.5869913,2.81254687 15.8089588,3.40040625 15.5200139,4.21879687 L14.9115592,4.21879687 L12.5355104,2.62753125 C12.5773682,2.4616875 12.5998137,2.28810938 12.5998137,2.109375 C12.5998137,0.946265625 11.6578031,0 10.4999238,0 C9.34204456,0 8.40003396,0.946265625 8.40003396,2.109375 C8.40003396,2.28810938 8.42247945,2.4616875 8.46433725,2.62753125 L6.08819519,4.21875 L5.47974043,4.21875 C5.19079558,3.40035937 4.41276304,2.8125 3.50024423,2.8125 C2.34236494,2.8125 1.40035434,3.75876562 1.40035434,4.921875 C1.40035434,5.95940625 2.15015502,6.82378125 3.1339301,6.9984375 L3.88116425,11.5619531 C3.5484017,11.4215625 3.18325418,11.34375 2.80028093,11.34375 C1.25644189,11.34375 0.000427749696,12.6054375 0.000427749696,14.15625 C0.000427749696,15.1949531 0.564318181,16.1032969 1.40035434,16.590375 L1.40035434,19.9043437 C1.40035434,20.9815781 0.964837178,22.036875 0.205470331,22.7996719 C-0.233546648,23.2406719 0.0772370553,24 0.700391045,24 L4.90017082,24 C5.28673721,24 5.60013411,23.6851875 5.60013411,23.296875 L5.60013411,22.59375 L15.3996203,22.59375 L15.3996203,23.296875 C15.3996203,23.6851875 15.7130171,24 16.0995835,24 L20.2993633,24 C20.9201841,24 21.2349343,23.2423594 20.7943307,22.7997188 Z M17.4995101,4.21875 C17.8854699,4.21875 18.1994734,4.53417188 18.1994734,4.921875 C18.1994734,5.30957812 17.8854699,5.625 17.4995101,5.625 C17.1135504,5.625 16.7995468,5.30957812 16.7995468,4.921875 C16.7995468,4.53417188 17.1135504,4.21875 17.4995101,4.21875 Z M10.4998772,1.40625 C10.8858369,1.40625 11.1998405,1.72167187 11.1998405,2.109375 C11.1998405,2.49707812 10.8858369,2.8125 10.4998772,2.8125 C10.1139174,2.8125 9.79991389,2.49707812 9.79991389,2.109375 C9.79991389,1.72167187 10.1139174,1.40625 10.4998772,1.40625 Z M5.47974043,5.625 L6.30009741,5.625 C6.43827016,5.625 6.57336308,5.5839375 6.68834372,5.50692188 L9.24162316,3.7970625 C9.59258476,4.06171875 10.0282886,4.21875 10.4998772,4.21875 C10.9714658,4.21875 11.4072163,4.06171875 11.7581312,3.7970625 L14.3114106,5.50692188 C14.4263913,5.5839375 14.5614842,5.625 14.699657,5.625 L15.5200139,5.625 C15.6924849,6.11348438 16.0391534,6.51970313 16.4848433,6.76785938 L15.4804893,12.9018281 C15.2389553,12.8042344 14.9755825,12.75 14.6997036,12.75 L14.1229339,12.75 L14.6518261,9.48740625 C14.8525756,8.27746875 13.9905475,7.03125 12.47984,7.03125 C12.1909418,6.21276563 11.4124427,5.625 10.4998772,5.625 C9.5873117,5.625 8.80881252,6.21276563 8.51991434,7.03125 C7.00827361,7.03125 6.14769207,8.28028125 6.34755492,9.48482813 L6.87686716,12.75 L6.30009741,12.75 C6.02421854,12.75 5.76084569,12.8042344 5.51926502,12.9018281 L4.51491102,6.76785938 C4.96060098,6.51965625 5.30726947,6.11348438 5.47974043,5.625 Z M14.699657,14.15625 C15.0856167,14.15625 15.3996203,14.4716719 15.3996203,14.859375 C15.3996203,14.9078437 15.3947205,14.9551875 15.3853877,15.0008906 C15.3200111,15.321 15.0373659,15.5625 14.699657,15.5625 L6.30009741,15.5625 C5.91413765,15.5625 5.60013411,15.2470781 5.60013411,14.859375 C5.60013411,14.4716719 5.91413765,14.15625 6.30009741,14.15625 C6.63360659,14.15625 14.3660544,14.15625 14.699657,14.15625 Z M8.41935295,8.4375 L9.09999726,8.4375 C9.48656365,8.4375 9.79996055,8.1226875 9.79996055,7.734375 C9.79996055,7.34667187 10.1139641,7.03125 10.4999238,7.03125 C10.8858836,7.03125 11.1998871,7.34667188 11.1998871,7.734375 C11.1998871,8.1226875 11.513284,8.4375 11.8998504,8.4375 L12.5804947,8.4375 C13.0120454,8.4375 13.3427081,8.82360938 13.2705186,9.25879688 L12.7045749,12.75 L8.29527279,12.75 L7.72890915,9.25621875 C7.65769955,8.82679687 7.98570235,8.4375 8.41935295,8.4375 Z M3.50024423,5.625 C3.11428447,5.625 2.80028093,5.30957812 2.80028093,4.921875 C2.80028093,4.53417188 3.11428447,4.21875 3.50024423,4.21875 C3.88620399,4.21875 4.20020752,4.53417188 4.20020752,4.921875 C4.20020752,5.30957812 3.88620399,5.625 3.50024423,5.625 Z M15.3996203,21.1875 L5.60013411,21.1875 L5.60013411,20.484375 C5.60013411,20.0966719 5.91413765,19.78125 6.30009741,19.78125 L14.699657,19.78125 C15.0856167,19.78125 15.3996203,20.0966719 15.3996203,20.484375 L15.3996203,21.1875 Z M18.1994268,15.5625 C17.8128604,15.5625 17.4994635,15.8773125 17.4994635,16.265625 C17.4994635,16.6539375 17.8128604,16.96875 18.1994268,16.96875 L18.1994268,19.9043437 C18.1994734,20.8468594 18.4475404,21.7767656 18.9022366,22.59375 L16.7995935,22.59375 L16.7995935,20.484375 C16.7995935,19.3212656 15.8575829,18.375 14.6997036,18.375 L6.30014407,18.375 C5.14226479,18.375 4.20025419,19.3212656 4.20025419,20.484375 L4.20025419,22.59375 L2.09756445,22.59375 C2.5522606,21.7767656 2.80028093,20.8468594 2.80028093,19.9043437 L2.80028093,16.96875 C3.18684733,16.96875 3.50024423,16.6539375 3.50024423,16.265625 C3.50024423,15.8773125 3.18684733,15.5625 2.80028093,15.5625 C2.02836141,15.5625 1.40035434,14.9316562 1.40035434,14.15625 C1.40035434,13.3808438 2.02836141,12.75 2.80028093,12.75 C3.57220045,12.75 4.20020752,13.3808438 4.20020752,14.15625 L4.20020752,14.859375 C4.20020752,16.0224844 5.14221813,16.96875 6.30009741,16.96875 L14.699657,16.96875 C15.7489953,16.96875 16.6210095,16.1916094 16.7752814,15.1801875 C16.7912406,15.0755625 16.7995002,14.9684063 16.7995002,14.859375 L16.7995002,14.15625 C16.7995002,13.3808437 17.4275072,12.75 18.1994268,12.75 C18.9713463,12.75 19.5993534,13.3808438 19.5993534,14.15625 C19.5993534,14.9316562 18.9713463,15.5625 18.1994268,15.5625 Z" id="Shape"></path>
                </g>
            </g>
        </g>
    </g>
</svg>