<?xml version="1.0" encoding="UTF-8"?>
<svg width="24px" height="24px" viewBox="0 0 24 24" version="1.1" xmlns="http://www.w3.org/2000/svg" xmlns:xlink="http://www.w3.org/1999/xlink">
    <!-- Generator: Sketch 46.2 (44496) - http://www.bohemiancoding.com/sketch -->
    <title>016-quill</title>
    <desc>Created with Sketch.</desc>
    <defs></defs>
    <g id="design" stroke="none" stroke-width="1" fill="none" fill-rule="evenodd">
        <g id="landing-page" transform="translate(-29.000000, -430.000000)" fill-rule="nonzero" fill="#FFFFFF">
            <g id="sidebar" transform="translate(0.000000, -3.000000)">
                <g id="raven" transform="translate(29.000000, 433.000000)">
                    <g id="016-quill">
                        <path d="M10.8492647,13.8006042 L10.1323529,13.8006042 L10.1323529,12.2257402 C10.9667904,11.926429 11.5661765,11.1204834 11.5661765,10.1752266 C11.5661765,8.97580665 10.6013566,8 9.41544118,8 L3.58455882,8 C2.39864338,8 1.43382353,8.97580665 1.43382353,10.1752266 C1.43382353,11.1204834 2.03320956,11.926429 2.86764706,12.2257402 L2.86764706,13.8006042 L2.15073529,13.8006042 C0.964819853,13.8006042 0,14.7764109 0,15.9758308 L0,21.8247734 C0,23.0241934 0.964819853,24 2.15073529,24 L10.8492647,24 C12.0351801,24 13,23.0241934 13,21.8247734 L13,15.9758308 C13,14.7764109 12.0351801,13.8006042 10.8492647,13.8006042 Z M3.58455882,9.45015106 L9.41544118,9.45015106 C9.81074632,9.45015106 10.1323529,9.77541994 10.1323529,10.1752266 C10.1323529,10.5750332 9.81074632,10.9003021 9.41544118,10.9003021 L3.58455882,10.9003021 C3.18925368,10.9003021 2.86764706,10.5750332 2.86764706,10.1752266 C2.86764706,9.77541994 3.18925368,9.45015106 3.58455882,9.45015106 Z M8.69852941,12.3504532 L8.69852941,13.8006042 L4.30147059,13.8006042 L4.30147059,12.3504532 L8.69852941,12.3504532 Z M11.5661765,21.8247734 C11.5661765,22.2245801 11.2445699,22.5498489 10.8492647,22.5498489 L2.15073529,22.5498489 C1.75543015,22.5498489 1.43382353,22.2245801 1.43382353,21.8247734 L1.43382353,18.1510574 L11.5661765,18.1510574 L11.5661765,21.8247734 Z M11.5661765,16.7009063 L1.43382353,16.7009063 L1.43382353,15.9758308 C1.43382353,15.5760242 1.75543015,15.2507553 2.15073529,15.2507553 C2.51922794,15.2507553 10.5112169,15.2507553 10.8492647,15.2507553 C11.2445699,15.2507553 11.5661765,15.5760242 11.5661765,15.9758308 L11.5661765,16.7009063 Z" id="Shape"></path>
                        <path d="M23.932791,7.48498387 C23.5865536,4.48221531 21.9223662,1.77588455 19.3962281,0.118054803 C19.1563714,-0.0393516009 18.8437529,-0.0393516009 18.603801,0.118054803 C16.0510438,1.79327519 14.4010469,4.52604348 14.0640475,7.50003076 C14.021619,7.874328 14,8.252469 14,8.63281312 L14,11.9997539 C14,11.9998945 14,12.000082 14,12.0002227 L14,12.5546607 C14,15.8375545 15.5952351,18.8929638 18.2857063,20.8043406 L18.2857063,23.2968743 C18.2857063,23.6851872 18.6055152,24 18.9999907,24 C19.3944662,24 19.7142751,23.6851872 19.7142751,23.2968743 L19.7142751,20.8043406 C22.4047463,18.8929169 23.9999814,15.8375545 23.9999814,12.5546607 L23.9999814,12.0002227 C23.9999814,12.000082 23.9999814,11.9998945 23.9999814,11.9997539 L23.9999814,8.63281312 C23.9999814,8.40753165 24.0029814,7.63367152 23.932791,7.48498387 Z M18.2857063,17.6249938 L18.2857063,18.990792 C16.7807091,17.621525 15.8026157,15.7851951 15.516521,13.7840525 L18.2857063,16.5099771 L18.2857063,17.6249938 Z M18.2857063,14.5212564 L15.4285688,11.7088005 L15.4285688,8.63281312 C15.4285688,8.02526565 15.4909496,7.42714007 15.6110922,6.8458895 L18.2857063,9.47872019 C18.2857063,10.4839556 18.2857063,13.5155991 18.2857063,14.5212564 Z M18.9999907,5.6718571 C18.6055152,5.6718571 18.2857063,5.98666991 18.2857063,6.37498279 L18.2857063,7.4899995 L16.0768533,5.31565363 C16.6788998,3.83773031 17.6805646,2.53586966 18.9999907,1.56377496 C20.9545585,3.00377637 22.2124133,5.16701286 22.5052699,7.55510894 L19.7142751,10.3025022 L19.7142751,9.18771991 C19.7142751,9.18757928 19.7142751,9.18739178 19.7142751,9.18725116 L19.7142751,6.37498279 C19.7142751,5.98666991 19.3944662,5.6718571 18.9999907,5.6718571 Z M19.7142751,18.990792 L19.7142751,17.6249938 L19.7142751,16.5099771 L22.4834604,13.7840525 C22.1974133,15.7851951 21.2193199,17.621525 19.7142751,18.990792 Z M22.5714126,11.7087536 L19.7142751,14.5212095 L19.7142751,12.2911761 L22.5714126,9.47867332 L22.5714126,11.7087536 Z" id="Shape"></path>
                    </g>
                </g>
            </g>
        </g>
    </g>
</svg>